<svg xmlns="http://www.w3.org/2000/svg" xmlns:xlink="http://www.w3.org/1999/xlink" width="500" zoomAndPan="magnify" viewBox="0 0 375 374.999991" height="500" preserveAspectRatio="xMidYMid meet" version="1.0"><defs><g/><clipPath id="93de82de51"><path d="M 0.480469 13 L 60 13 L 60 79 L 0.480469 79 Z M 0.480469 13 " clip-rule="nonzero"/></clipPath><clipPath id="c14762304b"><rect x="0" width="61" y="0" height="94"/></clipPath><clipPath id="0e3b2ddb6f"><rect x="0" width="62" y="0" height="94"/></clipPath><clipPath id="796b893b8f"><rect x="0" width="38" y="0" height="94"/></clipPath><clipPath id="795a6cba38"><path d="M 0.398438 13 L 36 13 L 36 79 L 0.398438 79 Z M 0.398438 13 " clip-rule="nonzero"/></clipPath><clipPath id="48f6126352"><rect x="0" width="37" y="0" height="94"/></clipPath><clipPath id="3ed1dc8e29"><path d="M 196.453125 150.667969 L 219.527344 150.667969 L 219.527344 209.175781 L 196.453125 209.175781 Z M 196.453125 150.667969 " clip-rule="nonzero"/></clipPath><clipPath id="5cac0d381c"><path d="M 0.453125 0.667969 L 23.527344 0.667969 L 23.527344 59.175781 L 0.453125 59.175781 Z M 0.453125 0.667969 " clip-rule="nonzero"/></clipPath><clipPath id="f6073ad552"><rect x="0" width="24" y="0" height="60"/></clipPath><clipPath id="3af3666c7f"><path d="M 198 149 L 228 149 L 228 211 L 198 211 Z M 198 149 " clip-rule="nonzero"/></clipPath><clipPath id="a42f81a381"><path d="M 184.765625 158.203125 L 225.535156 143.039062 L 244.886719 195.054688 L 204.113281 210.222656 Z M 184.765625 158.203125 " clip-rule="nonzero"/></clipPath><clipPath id="122b3714ce"><path d="M 184.765625 158.203125 L 225.535156 143.039062 L 244.886719 195.054688 L 204.113281 210.222656 Z M 184.765625 158.203125 " clip-rule="nonzero"/></clipPath><clipPath id="b08d281e81"><path d="M 104.152344 220.078125 L 279.539062 220.078125 L 279.539062 248.964844 L 104.152344 248.964844 Z M 104.152344 220.078125 " clip-rule="nonzero"/></clipPath><clipPath id="aa27ff8952"><path d="M 0.152344 0.078125 L 175.539062 0.078125 L 175.539062 28.964844 L 0.152344 28.964844 Z M 0.152344 0.078125 " clip-rule="nonzero"/></clipPath><clipPath id="f48b4ea63b"><rect x="0" width="176" y="0" height="29"/></clipPath><clipPath id="9fb365f29a"><path d="M 1 13 L 60.640625 13 L 60.640625 79 L 1 79 Z M 1 13 " clip-rule="nonzero"/></clipPath><clipPath id="7c3e41e0fb"><rect x="0" width="61" y="0" height="94"/></clipPath><clipPath id="8b7bf4c7d3"><path d="M 1 13 L 60.640625 13 L 60.640625 79 L 1 79 Z M 1 13 " clip-rule="nonzero"/></clipPath><clipPath id="8ce2b8e980"><rect x="0" width="61" y="0" height="94"/></clipPath><clipPath id="668c24d523"><rect x="0" width="62" y="0" height="94"/></clipPath></defs><rect x="-37.5" width="450" fill="#ffffff" y="-37.499999" height="449.999989" fill-opacity="1"/><rect x="-37.5" width="450" fill="#000000" y="-37.499999" height="449.999989" fill-opacity="1"/><g transform="matrix(1, 0, 0, 1, 276, 134)"><g clip-path="url(#c14762304b)"><g clip-path="url(#93de82de51)"><g fill="#000000" fill-opacity="1"><g transform="translate(2.021236, 75.050865)"><g><path d="M 57.851562 -27.277344 C 57.851562 -25.125 57.738281 -22.878906 57.507812 -20.539062 C 57.269531 -18.050781 56.917969 -16.128906 56.464844 -14.765625 L 56.4375 -14.683594 L 55.433594 -12.101562 C 54.652344 -10.089844 53.464844 -8.105469 51.871094 -6.152344 L 51.808594 -6.074219 L 51.738281 -6 C 50.90625 -5.089844 49.578125 -3.964844 47.757812 -2.625 C 45.898438 -1.257812 44.039062 -0.179688 42.179688 0.605469 C 39.964844 1.507812 37.804688 2.164062 35.699219 2.578125 C 33.589844 2.992188 32.050781 3.203125 31.082031 3.203125 L 31.082031 -0.277344 L 31.464844 3.179688 C 30.8125 3.253906 29.847656 3.304688 28.574219 3.339844 C 27.371094 3.371094 26.164062 3.386719 24.957031 3.386719 L 22.359375 3.386719 L 22.359375 -0.09375 L 22.441406 3.386719 L 20.445312 3.433594 C 19.152344 3.464844 17.5625 3.480469 15.679688 3.480469 L 3.617188 3.480469 C 2.277344 3.480469 1.191406 3.019531 0.359375 2.097656 C -0.464844 1.179688 -0.8125 0.0546875 -0.679688 -1.273438 L -0.652344 -1.527344 L -0.59375 -1.773438 C -0.53125 -2.007812 -0.488281 -2.890625 -0.464844 -4.421875 C -0.433594 -6.195312 -0.417969 -8.230469 -0.417969 -10.53125 L -0.417969 -17.210938 C -0.417969 -19.289062 -0.445312 -20.914062 -0.507812 -22.09375 L -0.507812 -22.1875 C -0.570312 -24.882812 -0.664062 -27.578125 -0.785156 -30.273438 C -0.910156 -33.023438 -1.003906 -35.769531 -1.066406 -38.519531 L -1.066406 -54.660156 L -0.875 -57.828125 L 2.597656 -57.617188 L -0.882812 -57.617188 C -0.882812 -58.828125 -0.480469 -59.832031 0.324219 -60.636719 C 1.125 -61.4375 2.132812 -61.839844 3.339844 -61.839844 L 28.578125 -61.839844 L 28.578125 -54.882812 L 25.578125 -54.882812 L 25.578125 -61.839844 L 28.671875 -61.839844 C 32.445312 -61.839844 35.78125 -61.445312 38.683594 -60.648438 C 41.757812 -59.808594 44.878906 -58.085938 48.042969 -55.480469 L 45.835938 -52.792969 L 47.976562 -55.535156 C 50.371094 -53.667969 52.222656 -51.417969 53.539062 -48.78125 C 54.734375 -46.394531 55.59375 -44.167969 56.121094 -42.097656 C 56.601562 -40.195312 56.914062 -38.867188 57.050781 -38.105469 C 57.195312 -37.324219 57.332031 -36.203125 57.464844 -34.738281 C 57.59375 -33.324219 57.691406 -31.910156 57.753906 -30.5 C 57.820312 -29.085938 57.851562 -28.011719 57.851562 -27.277344 Z M 50.890625 -27.277344 C 50.890625 -27.90625 50.863281 -28.875 50.800781 -30.183594 C 50.742188 -31.492188 50.652344 -32.800781 50.535156 -34.109375 C 50.421875 -35.367188 50.3125 -36.285156 50.207031 -36.863281 C 50.097656 -37.464844 49.820312 -38.636719 49.375 -40.386719 C 48.972656 -41.96875 48.285156 -43.730469 47.316406 -45.671875 C 46.46875 -47.367188 45.257812 -48.828125 43.691406 -50.050781 L 43.660156 -50.078125 L 43.625 -50.105469 C 41.222656 -52.078125 38.964844 -53.355469 36.84375 -53.9375 C 34.546875 -54.566406 31.820312 -54.882812 28.671875 -54.882812 L 25.578125 -54.882812 C 25.117188 -54.882812 24.671875 -54.96875 24.246094 -55.144531 C 23.820312 -55.324219 23.441406 -55.574219 23.117188 -55.898438 C 22.789062 -56.226562 22.539062 -56.601562 22.363281 -57.027344 C 22.1875 -57.457031 22.097656 -57.898438 22.097656 -58.359375 C 22.097656 -58.820312 22.1875 -59.265625 22.363281 -59.691406 C 22.539062 -60.117188 22.789062 -60.496094 23.117188 -60.820312 C 23.441406 -61.148438 23.820312 -61.398438 24.246094 -61.574219 C 24.671875 -61.753906 25.117188 -61.839844 25.578125 -61.839844 L 28.578125 -61.839844 L 28.578125 -54.882812 L 3.339844 -54.882812 C 4.054688 -54.882812 4.6875 -55.160156 5.242188 -55.714844 C 5.800781 -56.269531 6.078125 -56.90625 6.078125 -57.617188 L 6.078125 -57.511719 L 5.886719 -54.347656 L 2.414062 -54.558594 L 5.890625 -54.558594 L 5.890625 -38.597656 L 2.414062 -38.597656 L 5.890625 -38.675781 C 5.953125 -35.980469 6.042969 -33.285156 6.167969 -30.589844 C 6.292969 -27.84375 6.386719 -25.09375 6.449219 -22.347656 L 2.96875 -22.269531 L 6.445312 -22.441406 C 6.507812 -21.148438 6.542969 -19.402344 6.542969 -17.210938 L 6.542969 -10.53125 C 6.542969 -8.191406 6.527344 -6.113281 6.496094 -4.300781 C 6.460938 -2.242188 6.347656 -0.835938 6.160156 -0.0820312 L 2.785156 -0.929688 L 6.246094 -0.582031 C 6.316406 -1.292969 6.078125 -1.953125 5.53125 -2.558594 C 5.199219 -2.929688 4.808594 -3.191406 4.351562 -3.347656 C 4.097656 -3.433594 3.851562 -3.480469 3.617188 -3.480469 L 15.679688 -3.480469 C 17.507812 -3.480469 19.042969 -3.496094 20.285156 -3.523438 L 22.320312 -3.574219 L 24.957031 -3.574219 C 26.101562 -3.574219 27.25 -3.585938 28.394531 -3.617188 C 29.46875 -3.644531 30.238281 -3.6875 30.699219 -3.738281 L 30.890625 -3.757812 L 31.082031 -3.757812 C 31.597656 -3.757812 32.6875 -3.921875 34.355469 -4.25 C 36.023438 -4.578125 37.726562 -5.09375 39.46875 -5.800781 C 40.824219 -6.375 42.214844 -7.1875 43.632812 -8.230469 C 45.089844 -9.300781 46.082031 -10.125 46.609375 -10.703125 L 49.175781 -8.351562 L 46.476562 -10.546875 C 47.609375 -11.933594 48.429688 -13.292969 48.949219 -14.621094 L 49.921875 -17.128906 L 53.164062 -15.867188 L 49.863281 -16.964844 C 50.152344 -17.832031 50.390625 -19.246094 50.582031 -21.214844 C 50.789062 -23.328125 50.890625 -25.351562 50.890625 -27.277344 Z M 26.824219 -24.1875 C 26.914062 -24.691406 26.972656 -25.488281 27 -26.574219 C 27.03125 -27.789062 27.03125 -29.03125 27 -30.304688 C 26.972656 -31.566406 26.929688 -32.53125 26.871094 -33.207031 L 30.339844 -33.496094 L 26.882812 -33.101562 C 26.785156 -33.96875 26.65625 -34.652344 26.503906 -35.152344 C 26.457031 -35.308594 26.410156 -35.425781 26.371094 -35.503906 C 26.394531 -35.460938 26.445312 -35.398438 26.523438 -35.316406 C 26.472656 -35.371094 26.429688 -35.410156 26.398438 -35.4375 C 26.402344 -35.429688 26.421875 -35.417969 26.453125 -35.402344 C 26.683594 -35.273438 26.957031 -35.210938 27.277344 -35.210938 C 27.621094 -35.210938 27.960938 -35.308594 28.296875 -35.503906 C 28.671875 -35.71875 28.953125 -36.003906 29.140625 -36.355469 C 29.210938 -36.484375 29.257812 -36.59375 29.277344 -36.683594 C 29.269531 -36.644531 29.257812 -36.574219 29.246094 -36.476562 C 29.203125 -36.136719 29.179688 -35.667969 29.179688 -35.070312 L 29.179688 -23.660156 C 29.179688 -22.757812 29.238281 -21.996094 29.355469 -21.371094 C 29.285156 -21.75 29.0625 -22.097656 28.695312 -22.421875 C 28.277344 -22.785156 27.835938 -22.964844 27.371094 -22.964844 C 27.28125 -22.964844 27.15625 -22.925781 26.992188 -22.847656 C 26.695312 -22.707031 26.457031 -22.5 26.285156 -22.222656 C 26.425781 -22.449219 26.609375 -23.125 26.835938 -24.25 Z M 33.660156 -22.882812 C 33.265625 -20.917969 32.769531 -19.457031 32.167969 -18.507812 C 31.625 -17.644531 30.894531 -16.996094 29.976562 -16.5625 C 29.195312 -16.191406 28.328125 -16.003906 27.371094 -16.003906 C 26.101562 -16.003906 25.019531 -16.394531 24.125 -17.171875 C 23.273438 -17.914062 22.734375 -18.890625 22.511719 -20.101562 C 22.316406 -21.148438 22.222656 -22.332031 22.222656 -23.660156 L 22.222656 -35.070312 C 22.222656 -37.136719 22.480469 -38.65625 23 -39.632812 C 23.4375 -40.449219 24.042969 -41.082031 24.820312 -41.53125 C 25.558594 -41.957031 26.378906 -42.171875 27.277344 -42.171875 C 28.828125 -42.171875 30.257812 -41.484375 31.5625 -40.117188 C 32.714844 -38.902344 33.460938 -36.828125 33.796875 -33.890625 L 33.804688 -33.835938 L 33.808594 -33.785156 C 33.875 -32.972656 33.925781 -31.867188 33.957031 -30.46875 C 33.988281 -29.082031 33.988281 -27.726562 33.957031 -26.40625 C 33.921875 -24.957031 33.828125 -23.800781 33.671875 -22.945312 Z M 33.660156 -22.882812 "/></g></g></g></g><g fill="#ffffff" fill-opacity="1"><g transform="translate(2.021236, 75.050865)"><g><path d="M 54.375 -27.28125 C 54.375 -25.238281 54.265625 -23.101562 54.046875 -20.875 C 53.828125 -18.644531 53.53125 -16.972656 53.15625 -15.859375 C 53.15625 -15.859375 52.832031 -15.023438 52.1875 -13.359375 C 51.539062 -11.691406 50.535156 -10.019531 49.171875 -8.34375 C 48.492188 -7.601562 47.332031 -6.628906 45.6875 -5.421875 C 44.050781 -4.222656 42.429688 -3.28125 40.828125 -2.59375 C 38.847656 -1.789062 36.910156 -1.203125 35.015625 -0.828125 C 33.128906 -0.460938 31.816406 -0.28125 31.078125 -0.28125 C 30.523438 -0.21875 29.660156 -0.171875 28.484375 -0.140625 C 27.304688 -0.109375 26.128906 -0.09375 24.953125 -0.09375 C 23.785156 -0.09375 22.921875 -0.09375 22.359375 -0.09375 C 22.296875 -0.09375 21.628906 -0.078125 20.359375 -0.046875 C 19.097656 -0.015625 17.535156 0 15.671875 0 C 13.816406 0 11.960938 0 10.109375 0 C 8.253906 0 6.707031 0 5.46875 0 C 4.238281 0 3.625 0 3.625 0 C 3 0 2.71875 -0.304688 2.78125 -0.921875 C 2.90625 -1.421875 2.984375 -2.566406 3.015625 -4.359375 C 3.046875 -6.148438 3.0625 -8.207031 3.0625 -10.53125 C 3.0625 -12.851562 3.0625 -15.078125 3.0625 -17.203125 C 3.0625 -19.335938 3.03125 -21.023438 2.96875 -22.265625 C 2.90625 -24.984375 2.8125 -27.703125 2.6875 -30.421875 C 2.5625 -33.148438 2.46875 -35.875 2.40625 -38.59375 L 2.40625 -54.5625 C 2.46875 -55.550781 2.53125 -56.570312 2.59375 -57.625 C 2.59375 -58.113281 2.84375 -58.359375 3.34375 -58.359375 L 28.578125 -58.359375 C 28.578125 -58.359375 28.28125 -58.359375 27.6875 -58.359375 C 27.101562 -58.359375 26.5625 -58.359375 26.0625 -58.359375 C 25.570312 -58.359375 25.453125 -58.359375 25.703125 -58.359375 C 25.953125 -58.359375 26.941406 -58.359375 28.671875 -58.359375 C 32.128906 -58.359375 35.15625 -58 37.75 -57.28125 C 40.351562 -56.570312 43.046875 -55.078125 45.828125 -52.796875 C 47.804688 -51.242188 49.335938 -49.382812 50.421875 -47.21875 C 51.503906 -45.0625 52.273438 -43.066406 52.734375 -41.234375 C 53.203125 -39.410156 53.5 -38.160156 53.625 -37.484375 C 53.75 -36.804688 53.875 -35.785156 54 -34.421875 C 54.125 -33.054688 54.21875 -31.691406 54.28125 -30.328125 C 54.34375 -28.972656 54.375 -27.957031 54.375 -27.28125 Z M 30.25 -23.5625 C 30.375 -24.25 30.453125 -25.222656 30.484375 -26.484375 C 30.515625 -27.753906 30.515625 -29.050781 30.484375 -30.375 C 30.453125 -31.707031 30.40625 -32.75 30.34375 -33.5 C 30.09375 -35.65625 29.65625 -37.054688 29.03125 -37.703125 C 28.414062 -38.359375 27.832031 -38.6875 27.28125 -38.6875 C 26.71875 -38.6875 26.3125 -38.453125 26.0625 -37.984375 C 25.820312 -37.523438 25.703125 -36.554688 25.703125 -35.078125 L 25.703125 -23.65625 C 25.703125 -22.539062 25.78125 -21.566406 25.9375 -20.734375 C 26.09375 -19.898438 26.570312 -19.484375 27.375 -19.484375 C 28.238281 -19.484375 28.851562 -19.773438 29.21875 -20.359375 C 29.59375 -20.953125 29.9375 -22.019531 30.25 -23.5625 Z M 30.25 -23.5625 "/></g></g></g></g></g><g transform="matrix(1, 0, 0, 1, 240, 134)"><g clip-path="url(#0e3b2ddb6f)"><g fill="#000000" fill-opacity="1"><g transform="translate(2.283446, 75.050865)"><g><path d="M 57.945312 -9.371094 C 57.945312 -8.976562 57.957031 -8.335938 57.988281 -7.445312 L 58.082031 -4.519531 C 58.113281 -3.507812 58.140625 -2.636719 58.171875 -1.90625 L 58.222656 -0.722656 L 58.222656 -0.648438 C 58.222656 0.425781 57.894531 1.34375 57.246094 2.101562 C 56.457031 3.019531 55.4375 3.480469 54.183594 3.480469 L 3.0625 3.480469 C 2.46875 3.480469 1.910156 3.355469 1.386719 3.113281 C 0.777344 2.828125 0.277344 2.410156 -0.117188 1.859375 C -0.625 1.148438 -0.882812 0.308594 -0.882812 -0.648438 L -0.882812 -38.785156 C -0.882812 -41.253906 -0.816406 -43.726562 -0.691406 -46.199219 L 2.785156 -46.019531 L -0.695312 -46.019531 C -0.695312 -48.152344 -0.726562 -50.25 -0.789062 -52.320312 L -0.789062 -52.421875 C -0.789062 -53.308594 -0.804688 -54.164062 -0.832031 -54.988281 C -0.867188 -55.972656 -0.851562 -56.988281 -0.78125 -58.035156 L -0.769531 -58.207031 L -0.742188 -58.375 C -0.589844 -59.296875 -0.203125 -60.0625 0.414062 -60.683594 C 1.1875 -61.453125 2.132812 -61.839844 3.246094 -61.839844 L 29.320312 -61.839844 C 29.910156 -61.839844 30.46875 -61.71875 30.992188 -61.472656 C 31.605469 -61.1875 32.105469 -60.769531 32.5 -60.222656 C 33.007812 -59.507812 33.261719 -58.671875 33.261719 -57.710938 C 33.261719 -55.804688 33.324219 -53.914062 33.441406 -52.039062 C 33.566406 -50.054688 33.664062 -48.054688 33.726562 -46.035156 C 33.789062 -44.71875 33.820312 -43.402344 33.820312 -42.078125 L 33.820312 -38.320312 L 30.339844 -38.320312 L 33.8125 -38.566406 C 33.882812 -37.574219 33.882812 -36.195312 33.816406 -34.429688 L 33.632812 -29.648438 C 33.578125 -28.289062 33.570312 -27.457031 33.605469 -27.152344 L 33.632812 -26.9375 L 33.632812 -24.214844 C 33.632812 -24.128906 33.636719 -24.070312 33.644531 -24.046875 C 33.628906 -24.101562 33.597656 -24.160156 33.550781 -24.21875 L 33.628906 -24.117188 L 33.699219 -24.011719 C 33.390625 -24.476562 33.046875 -24.773438 32.667969 -24.90625 C 32.769531 -24.871094 32.980469 -24.835938 33.300781 -24.800781 C 34.355469 -24.691406 35.472656 -24.632812 36.648438 -24.632812 L 39.527344 -24.632812 C 40.117188 -24.632812 41.046875 -24.648438 42.320312 -24.679688 C 43.597656 -24.710938 44.984375 -24.753906 46.480469 -24.816406 L 50.835938 -25.003906 C 52.277344 -25.066406 53.421875 -25.097656 54.277344 -25.097656 L 54.621094 -25.097656 L 54.960938 -25.03125 C 56.058594 -24.8125 56.902344 -24.253906 57.5 -23.363281 C 58.09375 -22.472656 58.28125 -21.476562 58.0625 -20.378906 L 54.648438 -21.0625 L 58.128906 -21.0625 L 58.128906 -19.671875 C 58.128906 -18.824219 58.113281 -17.949219 58.082031 -17.039062 C 58.050781 -16.214844 58.035156 -15.609375 58.035156 -15.214844 L 58.035156 -15.109375 L 58.03125 -15 C 57.972656 -14.082031 57.945312 -13.164062 57.945312 -12.246094 Z M 50.984375 -9.371094 L 50.984375 -12.246094 C 50.984375 -13.308594 51.015625 -14.371094 51.082031 -15.433594 L 54.558594 -15.214844 L 51.078125 -15.214844 C 51.078125 -15.691406 51.09375 -16.382812 51.125 -17.289062 C 51.15625 -18.113281 51.167969 -18.90625 51.167969 -19.671875 L 51.167969 -21.40625 L 51.238281 -21.746094 C 51.078125 -20.957031 51.238281 -20.210938 51.707031 -19.503906 C 52.179688 -18.796875 52.808594 -18.363281 53.597656 -18.207031 L 54.277344 -21.617188 L 54.277344 -18.140625 C 53.527344 -18.140625 52.476562 -18.109375 51.132812 -18.050781 L 46.765625 -17.863281 C 45.230469 -17.800781 43.804688 -17.753906 42.484375 -17.722656 C 41.160156 -17.691406 40.171875 -17.675781 39.527344 -17.675781 L 36.648438 -17.675781 C 35.230469 -17.675781 33.871094 -17.742188 32.574219 -17.878906 C 30.316406 -18.117188 28.761719 -18.875 27.910156 -20.152344 L 30.804688 -22.082031 L 28.058594 -19.945312 C 27.136719 -21.132812 26.675781 -22.554688 26.675781 -24.214844 L 26.675781 -26.722656 L 30.15625 -26.722656 L 26.703125 -26.289062 C 26.617188 -26.972656 26.609375 -28.183594 26.675781 -29.917969 L 26.863281 -34.691406 C 26.921875 -36.207031 26.921875 -37.332031 26.871094 -38.070312 L 26.859375 -38.195312 L 26.859375 -42.078125 C 26.859375 -43.289062 26.832031 -44.539062 26.769531 -45.820312 C 26.707031 -47.761719 26.617188 -49.6875 26.496094 -51.597656 C 26.367188 -53.621094 26.304688 -55.660156 26.304688 -57.710938 C 26.304688 -57.183594 26.480469 -56.671875 26.835938 -56.175781 C 27.152344 -55.734375 27.558594 -55.398438 28.050781 -55.167969 C 28.460938 -54.976562 28.882812 -54.882812 29.320312 -54.882812 L 3.246094 -54.882812 C 4.054688 -54.882812 4.75 -55.175781 5.335938 -55.761719 C 5.769531 -56.195312 6.03125 -56.683594 6.121094 -57.230469 L 2.691406 -57.804688 L 6.164062 -57.574219 C 6.109375 -56.761719 6.09375 -55.984375 6.121094 -55.238281 C 6.152344 -54.332031 6.171875 -53.390625 6.171875 -52.421875 L 2.691406 -52.421875 L 6.167969 -52.523438 C 6.230469 -50.386719 6.261719 -48.21875 6.261719 -46.019531 L 6.261719 -45.929688 L 6.257812 -45.84375 C 6.136719 -43.488281 6.078125 -41.136719 6.078125 -38.785156 L 6.078125 -0.648438 C 6.078125 -1.175781 5.898438 -1.6875 5.546875 -2.183594 C 5.230469 -2.625 4.824219 -2.964844 4.332031 -3.195312 C 3.921875 -3.382812 3.5 -3.480469 3.0625 -3.480469 L 54.183594 -3.480469 C 53.304688 -3.480469 52.5625 -3.128906 51.960938 -2.425781 C 51.496094 -1.882812 51.261719 -1.292969 51.261719 -0.648438 L 54.742188 -0.648438 L 51.265625 -0.503906 L 51.21875 -1.617188 C 51.1875 -2.375 51.15625 -3.265625 51.125 -4.296875 L 51.03125 -7.214844 C 51 -8.179688 50.984375 -8.898438 50.984375 -9.371094 Z M 50.984375 -9.371094 "/></g></g></g><g fill="#ffffff" fill-opacity="1"><g transform="translate(2.283446, 75.050865)"><g><path d="M 54.46875 -9.375 C 54.46875 -8.9375 54.484375 -8.253906 54.515625 -7.328125 C 54.546875 -6.398438 54.570312 -5.425781 54.59375 -4.40625 C 54.625 -3.382812 54.65625 -2.503906 54.6875 -1.765625 C 54.71875 -1.023438 54.734375 -0.65625 54.734375 -0.65625 C 54.734375 -0.21875 54.550781 0 54.1875 0 L 3.0625 0 C 2.75 0 2.59375 -0.21875 2.59375 -0.65625 L 2.59375 -2.140625 C 2.59375 -2.203125 2.59375 -2.234375 2.59375 -2.234375 C 2.59375 -2.347656 2.59375 -2.46875 2.59375 -2.59375 L 2.59375 -31.546875 C 2.59375 -33.960938 2.59375 -36.375 2.59375 -38.78125 C 2.59375 -41.195312 2.65625 -43.609375 2.78125 -46.015625 C 2.78125 -48.179688 2.75 -50.316406 2.6875 -52.421875 C 2.6875 -53.347656 2.671875 -54.242188 2.640625 -55.109375 C 2.609375 -55.972656 2.625 -56.867188 2.6875 -57.796875 C 2.75 -58.171875 2.9375 -58.359375 3.25 -58.359375 L 29.3125 -58.359375 C 29.625 -58.359375 29.78125 -58.140625 29.78125 -57.703125 C 29.78125 -55.722656 29.84375 -53.757812 29.96875 -51.8125 C 30.09375 -49.863281 30.1875 -47.898438 30.25 -45.921875 C 30.3125 -44.628906 30.34375 -43.347656 30.34375 -42.078125 C 30.34375 -40.804688 30.34375 -39.550781 30.34375 -38.3125 C 30.40625 -37.445312 30.40625 -36.195312 30.34375 -34.5625 C 30.28125 -32.925781 30.21875 -31.332031 30.15625 -29.78125 C 30.09375 -28.238281 30.09375 -27.21875 30.15625 -26.71875 C 30.15625 -25.914062 30.15625 -25.082031 30.15625 -24.21875 C 30.15625 -23.351562 30.367188 -22.640625 30.796875 -22.078125 C 31.046875 -21.710938 31.757812 -21.46875 32.9375 -21.34375 C 34.113281 -21.21875 35.347656 -21.15625 36.640625 -21.15625 C 37.941406 -21.15625 38.90625 -21.15625 39.53125 -21.15625 C 40.144531 -21.15625 41.097656 -21.171875 42.390625 -21.203125 C 43.691406 -21.234375 45.097656 -21.28125 46.609375 -21.34375 C 48.128906 -21.40625 49.585938 -21.46875 50.984375 -21.53125 C 52.378906 -21.59375 53.476562 -21.625 54.28125 -21.625 C 54.582031 -21.5625 54.703125 -21.375 54.640625 -21.0625 C 54.640625 -20.9375 54.640625 -20.472656 54.640625 -19.671875 C 54.640625 -18.867188 54.625 -18.03125 54.59375 -17.15625 C 54.570312 -16.289062 54.5625 -15.644531 54.5625 -15.21875 C 54.5 -14.226562 54.46875 -13.238281 54.46875 -12.25 C 54.46875 -11.257812 54.46875 -10.300781 54.46875 -9.375 Z M 54.46875 -9.375 "/></g></g></g></g></g><g transform="matrix(1, 0, 0, 1, 204, 134)"><g clip-path="url(#796b893b8f)"><g fill="#000000" fill-opacity="1"><g transform="translate(2.545655, 75.050865)"><g><path d="M 2.785156 -61.839844 L 28.484375 -61.839844 C 29.84375 -61.839844 30.957031 -61.371094 31.816406 -60.433594 C 32.59375 -59.582031 32.984375 -58.519531 32.984375 -57.246094 L 32.984375 -57.066406 L 32.964844 -56.890625 C 32.792969 -55.203125 32.691406 -52.835938 32.660156 -49.789062 C 32.628906 -46.648438 32.613281 -43.242188 32.613281 -39.570312 C 32.613281 -35.914062 32.644531 -32.34375 32.707031 -28.871094 L 32.84375 -19.628906 C 32.875 -17.015625 32.921875 -15.210938 32.980469 -14.214844 L 32.984375 -14.113281 L 32.984375 -14.011719 C 32.984375 -11.914062 33.042969 -9.832031 33.164062 -7.761719 C 33.285156 -5.660156 33.4375 -3.542969 33.621094 -1.410156 C 33.738281 -0.0234375 33.367188 1.140625 32.511719 2.074219 C 31.652344 3.011719 30.527344 3.480469 29.132812 3.480469 L 2.875 3.480469 C 2.3125 3.480469 1.78125 3.367188 1.28125 3.140625 C 0.578125 2.820312 0.03125 2.332031 -0.363281 1.675781 C -0.871094 0.828125 -1.019531 -0.113281 -0.8125 -1.144531 L 2.597656 -0.464844 L -0.839844 -0.992188 C -0.738281 -1.65625 -0.660156 -2.996094 -0.601562 -5.015625 C -0.539062 -7.148438 -0.511719 -9.542969 -0.511719 -12.199219 C -0.511719 -14.875 -0.527344 -17.398438 -0.554688 -19.765625 C -0.585938 -22.101562 -0.632812 -23.867188 -0.691406 -25.0625 L -0.695312 -25.148438 L -0.695312 -25.238281 C -0.695312 -26.707031 -0.710938 -28.640625 -0.742188 -31.039062 L -0.835938 -38.835938 L -0.929688 -46.953125 L -1.019531 -53.859375 C -1.050781 -55.851562 -1.066406 -57.230469 -1.066406 -57.988281 L -1.066406 -59.429688 L 1.34375 -61.839844 Z M 2.785156 -54.882812 L 2.785156 -58.359375 L 5.242188 -55.898438 L 4.871094 -55.527344 L 2.414062 -57.988281 L 5.890625 -57.988281 C 5.890625 -57.265625 5.90625 -55.921875 5.9375 -53.953125 L 6.03125 -47.035156 L 6.125 -38.917969 L 6.214844 -31.128906 C 6.246094 -28.699219 6.261719 -26.738281 6.261719 -25.238281 L 2.785156 -25.238281 L 6.257812 -25.410156 C 6.324219 -24.132812 6.371094 -22.277344 6.402344 -19.855469 C 6.433594 -17.457031 6.449219 -14.90625 6.449219 -12.199219 C 6.449219 -9.476562 6.417969 -7.015625 6.355469 -4.816406 C 6.289062 -2.507812 6.183594 -0.882812 6.035156 0.0664062 L 6.023438 0.140625 L 6.011719 0.21875 C 6.15625 -0.507812 6.019531 -1.214844 5.605469 -1.90625 C 5.257812 -2.488281 4.773438 -2.917969 4.160156 -3.195312 C 3.746094 -3.386719 3.316406 -3.480469 2.875 -3.480469 L 29.132812 -3.480469 C 28.933594 -3.480469 28.71875 -3.441406 28.488281 -3.359375 C 28.0625 -3.214844 27.695312 -2.972656 27.382812 -2.628906 C 27.066406 -2.289062 26.859375 -1.902344 26.75 -1.46875 C 26.691406 -1.238281 26.671875 -1.019531 26.6875 -0.816406 C 26.5 -3.011719 26.34375 -5.195312 26.21875 -7.359375 C 26.089844 -9.5625 26.027344 -11.777344 26.027344 -14.011719 L 29.503906 -14.011719 L 26.03125 -13.804688 C 25.964844 -14.914062 25.917969 -16.820312 25.886719 -19.523438 L 25.746094 -28.746094 C 25.683594 -32.261719 25.65625 -35.871094 25.65625 -39.570312 C 25.65625 -43.265625 25.671875 -46.691406 25.699219 -49.859375 C 25.734375 -53.121094 25.847656 -55.703125 26.042969 -57.605469 L 29.503906 -57.246094 L 26.027344 -57.246094 C 26.027344 -56.714844 26.246094 -56.210938 26.683594 -55.730469 C 27.203125 -55.164062 27.804688 -54.882812 28.484375 -54.882812 Z M 2.785156 -54.882812 "/></g></g></g><g fill="#ffffff" fill-opacity="1"><g transform="translate(2.545655, 75.050865)"><g><path d="M 2.78125 -58.359375 L 28.484375 -58.359375 C 29.160156 -58.359375 29.5 -57.988281 29.5 -57.25 C 29.3125 -55.457031 29.203125 -52.984375 29.171875 -49.828125 C 29.148438 -46.671875 29.140625 -43.25 29.140625 -39.5625 C 29.140625 -35.882812 29.164062 -32.296875 29.21875 -28.796875 C 29.28125 -25.304688 29.328125 -22.234375 29.359375 -19.578125 C 29.390625 -16.921875 29.4375 -15.066406 29.5 -14.015625 C 29.5 -11.847656 29.5625 -9.695312 29.6875 -7.5625 C 29.8125 -5.425781 29.96875 -3.273438 30.15625 -1.109375 C 30.21875 -0.367188 29.878906 0 29.140625 0 L 2.875 0 C 2.625 0 2.53125 -0.15625 2.59375 -0.46875 C 2.71875 -1.269531 2.8125 -2.753906 2.875 -4.921875 C 2.9375 -7.085938 2.96875 -9.515625 2.96875 -12.203125 C 2.96875 -14.890625 2.953125 -17.421875 2.921875 -19.796875 C 2.890625 -22.179688 2.84375 -23.992188 2.78125 -25.234375 C 2.78125 -26.722656 2.765625 -28.671875 2.734375 -31.078125 C 2.703125 -33.492188 2.671875 -36.09375 2.640625 -38.875 C 2.609375 -41.65625 2.578125 -44.359375 2.546875 -46.984375 C 2.515625 -49.617188 2.484375 -51.925781 2.453125 -53.90625 C 2.421875 -55.882812 2.40625 -57.242188 2.40625 -57.984375 C 2.46875 -58.046875 2.59375 -58.171875 2.78125 -58.359375 Z M 2.78125 -58.359375 "/></g></g></g></g></g><g transform="matrix(1, 0, 0, 1, 182, 134)"><g clip-path="url(#48f6126352)"><g clip-path="url(#795a6cba38)"><g fill="#000000" fill-opacity="1"><g transform="translate(1.921584, 75.050865)"><g><path d="M 2.785156 -61.839844 L 28.484375 -61.839844 C 29.84375 -61.839844 30.957031 -61.371094 31.816406 -60.433594 C 32.59375 -59.582031 32.984375 -58.519531 32.984375 -57.246094 L 32.984375 -57.066406 L 32.964844 -56.890625 C 32.792969 -55.203125 32.691406 -52.835938 32.660156 -49.789062 C 32.628906 -46.648438 32.613281 -43.242188 32.613281 -39.570312 C 32.613281 -35.914062 32.644531 -32.34375 32.707031 -28.871094 L 32.84375 -19.628906 C 32.875 -17.015625 32.921875 -15.210938 32.980469 -14.214844 L 32.984375 -14.113281 L 32.984375 -14.011719 C 32.984375 -11.914062 33.042969 -9.832031 33.164062 -7.761719 C 33.285156 -5.660156 33.4375 -3.542969 33.621094 -1.410156 C 33.738281 -0.0234375 33.367188 1.140625 32.511719 2.074219 C 31.652344 3.011719 30.527344 3.480469 29.132812 3.480469 L 2.875 3.480469 C 2.3125 3.480469 1.78125 3.367188 1.28125 3.140625 C 0.578125 2.820312 0.03125 2.332031 -0.363281 1.675781 C -0.871094 0.828125 -1.019531 -0.113281 -0.8125 -1.144531 L 2.597656 -0.464844 L -0.839844 -0.992188 C -0.738281 -1.65625 -0.660156 -2.996094 -0.601562 -5.015625 C -0.539062 -7.148438 -0.511719 -9.542969 -0.511719 -12.199219 C -0.511719 -14.875 -0.527344 -17.398438 -0.554688 -19.765625 C -0.585938 -22.101562 -0.632812 -23.867188 -0.691406 -25.0625 L -0.695312 -25.148438 L -0.695312 -25.238281 C -0.695312 -26.707031 -0.710938 -28.640625 -0.742188 -31.039062 L -0.835938 -38.835938 L -0.929688 -46.953125 L -1.019531 -53.859375 C -1.050781 -55.851562 -1.066406 -57.230469 -1.066406 -57.988281 L -1.066406 -59.429688 L 1.34375 -61.839844 Z M 2.785156 -54.882812 L 2.785156 -58.359375 L 5.242188 -55.898438 L 4.871094 -55.527344 L 2.414062 -57.988281 L 5.890625 -57.988281 C 5.890625 -57.265625 5.90625 -55.921875 5.9375 -53.953125 L 6.03125 -47.035156 L 6.125 -38.917969 L 6.214844 -31.128906 C 6.246094 -28.699219 6.261719 -26.738281 6.261719 -25.238281 L 2.785156 -25.238281 L 6.257812 -25.410156 C 6.324219 -24.132812 6.371094 -22.277344 6.402344 -19.855469 C 6.433594 -17.457031 6.449219 -14.90625 6.449219 -12.199219 C 6.449219 -9.476562 6.417969 -7.015625 6.355469 -4.816406 C 6.289062 -2.507812 6.183594 -0.882812 6.035156 0.0664062 L 6.023438 0.140625 L 6.011719 0.21875 C 6.15625 -0.507812 6.019531 -1.214844 5.605469 -1.90625 C 5.257812 -2.488281 4.773438 -2.917969 4.160156 -3.195312 C 3.746094 -3.386719 3.316406 -3.480469 2.875 -3.480469 L 29.132812 -3.480469 C 28.933594 -3.480469 28.71875 -3.441406 28.488281 -3.359375 C 28.0625 -3.214844 27.695312 -2.972656 27.382812 -2.628906 C 27.066406 -2.289062 26.859375 -1.902344 26.75 -1.46875 C 26.691406 -1.238281 26.671875 -1.019531 26.6875 -0.816406 C 26.5 -3.011719 26.34375 -5.195312 26.21875 -7.359375 C 26.089844 -9.5625 26.027344 -11.777344 26.027344 -14.011719 L 29.503906 -14.011719 L 26.03125 -13.804688 C 25.964844 -14.914062 25.917969 -16.820312 25.886719 -19.523438 L 25.746094 -28.746094 C 25.683594 -32.261719 25.65625 -35.871094 25.65625 -39.570312 C 25.65625 -43.265625 25.671875 -46.691406 25.699219 -49.859375 C 25.734375 -53.121094 25.847656 -55.703125 26.042969 -57.605469 L 29.503906 -57.246094 L 26.027344 -57.246094 C 26.027344 -56.714844 26.246094 -56.210938 26.683594 -55.730469 C 27.203125 -55.164062 27.804688 -54.882812 28.484375 -54.882812 Z M 2.785156 -54.882812 "/></g></g></g></g><g fill="#ffffff" fill-opacity="1"><g transform="translate(1.921584, 75.050865)"><g><path d="M 2.78125 -58.359375 L 28.484375 -58.359375 C 29.160156 -58.359375 29.5 -57.988281 29.5 -57.25 C 29.3125 -55.457031 29.203125 -52.984375 29.171875 -49.828125 C 29.148438 -46.671875 29.140625 -43.25 29.140625 -39.5625 C 29.140625 -35.882812 29.164062 -32.296875 29.21875 -28.796875 C 29.28125 -25.304688 29.328125 -22.234375 29.359375 -19.578125 C 29.390625 -16.921875 29.4375 -15.066406 29.5 -14.015625 C 29.5 -11.847656 29.5625 -9.695312 29.6875 -7.5625 C 29.8125 -5.425781 29.96875 -3.273438 30.15625 -1.109375 C 30.21875 -0.367188 29.878906 0 29.140625 0 L 2.875 0 C 2.625 0 2.53125 -0.15625 2.59375 -0.46875 C 2.71875 -1.269531 2.8125 -2.753906 2.875 -4.921875 C 2.9375 -7.085938 2.96875 -9.515625 2.96875 -12.203125 C 2.96875 -14.890625 2.953125 -17.421875 2.921875 -19.796875 C 2.890625 -22.179688 2.84375 -23.992188 2.78125 -25.234375 C 2.78125 -26.722656 2.765625 -28.671875 2.734375 -31.078125 C 2.703125 -33.492188 2.671875 -36.09375 2.640625 -38.875 C 2.609375 -41.65625 2.578125 -44.359375 2.546875 -46.984375 C 2.515625 -49.617188 2.484375 -51.925781 2.453125 -53.90625 C 2.421875 -55.882812 2.40625 -57.242188 2.40625 -57.984375 C 2.46875 -58.046875 2.59375 -58.171875 2.78125 -58.359375 Z M 2.78125 -58.359375 "/></g></g></g></g></g><g clip-path="url(#3ed1dc8e29)"><g transform="matrix(1, 0, 0, 1, 196, 150)"><g clip-path="url(#f6073ad552)"><g clip-path="url(#5cac0d381c)"><path fill="#ffffff" d="M 0.453125 0.667969 L 23.527344 0.667969 L 23.527344 59.164062 L 0.453125 59.164062 Z M 0.453125 0.667969 " fill-opacity="1" fill-rule="nonzero"/></g></g></g></g><g clip-path="url(#3af3666c7f)"><g clip-path="url(#a42f81a381)"><g clip-path="url(#122b3714ce)"><path fill="#000000" d="M 206.890625 149.972656 L 198.476562 181.226562 L 208.371094 180.890625 L 204.238281 210.550781 L 224.761719 171.449219 L 215.414062 171.667969 L 227.652344 149.710938 Z M 206.890625 149.972656 " fill-opacity="1" fill-rule="nonzero"/></g></g></g><g clip-path="url(#b08d281e81)"><g transform="matrix(1, 0, 0, 1, 104, 220)"><g clip-path="url(#f48b4ea63b)"><g clip-path="url(#aa27ff8952)"><path fill="#000000" d="M 0.152344 0.078125 L 175.492188 0.078125 L 175.492188 28.964844 L 0.152344 28.964844 Z M 0.152344 0.078125 " fill-opacity="1" fill-rule="nonzero"/></g></g></g></g><g transform="matrix(1, 0, 0, 1, 140, 134)"><g clip-path="url(#7c3e41e0fb)"><g clip-path="url(#9fb365f29a)"><g fill="#000000" fill-opacity="1"><g transform="translate(2.22689, 75.050865)"><g><path d="M 45.429688 1.886719 C 43.414062 2.605469 41.378906 3.054688 39.320312 3.234375 C 37.457031 3.398438 36.101562 3.480469 35.257812 3.480469 L 19.671875 3.480469 C 16.726562 3.480469 13.722656 2.832031 10.660156 1.535156 C 7.429688 0.167969 4.914062 -1.769531 3.113281 -4.277344 C 1.875 -6.054688 0.957031 -8.03125 0.355469 -10.207031 C -0.191406 -12.203125 -0.554688 -14.152344 -0.726562 -16.0625 C -0.890625 -17.867188 -0.972656 -19.378906 -0.972656 -20.597656 L -0.972656 -57.710938 C -0.972656 -58.671875 -0.71875 -59.507812 -0.210938 -60.222656 C 0.183594 -60.769531 0.683594 -61.1875 1.292969 -61.472656 C 1.820312 -61.71875 2.378906 -61.839844 2.96875 -61.839844 L 24.496094 -61.839844 C 25.085938 -61.839844 25.644531 -61.71875 26.167969 -61.472656 C 26.78125 -61.1875 27.28125 -60.769531 27.675781 -60.222656 C 28.183594 -59.507812 28.4375 -58.671875 28.4375 -57.710938 L 28.4375 -43.65625 C 28.4375 -41.933594 28.421875 -40.105469 28.390625 -38.171875 C 28.359375 -36.292969 28.359375 -34.589844 28.390625 -33.050781 C 28.421875 -31.566406 28.460938 -30.5625 28.515625 -30.035156 L 28.523438 -29.945312 L 28.527344 -29.855469 C 28.582031 -28.671875 28.695312 -27.5 28.867188 -26.34375 C 28.914062 -26.003906 28.976562 -25.746094 29.046875 -25.578125 L 29.039062 -25.585938 C 28.992188 -25.65625 28.925781 -25.726562 28.847656 -25.796875 C 28.78125 -25.855469 28.652344 -25.914062 28.464844 -25.972656 C 28.105469 -26.078125 27.75 -26.078125 27.390625 -25.972656 C 27.507812 -26.007812 27.585938 -26.035156 27.625 -26.054688 C 27.503906 -25.992188 27.371094 -25.890625 27.230469 -25.75 L 29.691406 -23.289062 L 26.882812 -25.347656 C 27.117188 -25.660156 27.230469 -26.089844 27.230469 -26.628906 C 27.230469 -27.984375 27.265625 -29.3125 27.328125 -30.605469 L 30.804688 -30.433594 L 27.324219 -30.433594 C 27.324219 -31.074219 27.339844 -32.253906 27.371094 -33.976562 C 27.402344 -35.65625 27.417969 -37.519531 27.417969 -39.570312 L 27.417969 -45.464844 C 27.417969 -47.390625 27.449219 -48.886719 27.515625 -49.949219 L 30.988281 -49.730469 L 27.511719 -49.730469 L 27.511719 -53.769531 C 27.511719 -55.042969 27.480469 -56.300781 27.421875 -57.546875 L 27.417969 -57.628906 L 27.417969 -57.710938 C 27.417969 -58.671875 27.671875 -59.507812 28.179688 -60.222656 C 28.574219 -60.769531 29.074219 -61.1875 29.6875 -61.472656 C 30.210938 -61.71875 30.769531 -61.839844 31.359375 -61.839844 L 54.09375 -61.839844 C 54.683594 -61.839844 55.242188 -61.71875 55.765625 -61.472656 C 56.378906 -61.1875 56.878906 -60.769531 57.273438 -60.222656 C 57.78125 -59.507812 58.035156 -58.671875 58.035156 -57.710938 L 58.035156 -22.453125 C 58.035156 -19.804688 57.890625 -17.011719 57.601562 -14.085938 C 57.257812 -10.601562 56.105469 -7.605469 54.144531 -5.09375 C 52.9375 -3.605469 51.671875 -2.285156 50.34375 -1.128906 C 48.878906 0.140625 47.289062 1.128906 45.574219 1.828125 L 45.503906 1.859375 Z M 43.085938 -4.667969 L 44.257812 -1.390625 L 42.941406 -4.613281 C 43.945312 -5.023438 44.894531 -5.613281 45.78125 -6.386719 C 46.800781 -7.273438 47.761719 -8.269531 48.660156 -9.378906 C 49.792969 -10.828125 50.464844 -12.625 50.675781 -14.769531 C 50.945312 -17.472656 51.078125 -20.03125 51.078125 -22.453125 L 51.078125 -57.710938 C 51.078125 -57.183594 51.253906 -56.671875 51.609375 -56.175781 C 51.925781 -55.734375 52.328125 -55.398438 52.824219 -55.167969 C 53.234375 -54.976562 53.65625 -54.882812 54.09375 -54.882812 L 31.359375 -54.882812 C 31.796875 -54.882812 32.222656 -54.976562 32.628906 -55.167969 C 33.125 -55.398438 33.527344 -55.734375 33.84375 -56.175781 C 34.199219 -56.671875 34.375 -57.183594 34.375 -57.710938 L 30.898438 -57.710938 L 34.371094 -57.875 C 34.4375 -56.523438 34.46875 -55.152344 34.46875 -53.769531 L 34.46875 -49.625 L 34.460938 -49.515625 C 34.40625 -48.597656 34.375 -47.246094 34.375 -45.464844 L 34.375 -39.570312 C 34.375 -37.480469 34.359375 -35.570312 34.328125 -33.847656 C 34.300781 -32.167969 34.285156 -31.03125 34.285156 -30.433594 L 34.285156 -30.347656 L 34.28125 -30.257812 C 34.21875 -29.078125 34.191406 -27.871094 34.191406 -26.628906 C 34.191406 -24.570312 33.625 -22.769531 32.496094 -21.230469 L 32.339844 -21.015625 L 32.152344 -20.828125 C 31.488281 -20.167969 30.570312 -19.660156 29.390625 -19.304688 C 28.414062 -19.011719 27.441406 -19.011719 26.464844 -19.304688 C 25.65625 -19.546875 24.910156 -19.976562 24.222656 -20.59375 C 23.035156 -21.652344 22.289062 -23.230469 21.980469 -25.335938 C 21.777344 -26.714844 21.644531 -28.113281 21.574219 -29.523438 L 25.050781 -29.691406 L 21.589844 -29.34375 C 21.519531 -30.054688 21.464844 -31.246094 21.433594 -32.917969 C 21.402344 -34.535156 21.402344 -36.324219 21.433594 -38.28125 C 21.464844 -40.183594 21.480469 -41.972656 21.480469 -43.65625 L 21.480469 -57.710938 C 21.480469 -57.183594 21.65625 -56.671875 22.011719 -56.175781 C 22.328125 -55.734375 22.730469 -55.398438 23.226562 -55.167969 C 23.632812 -54.976562 24.058594 -54.882812 24.496094 -54.882812 L 2.96875 -54.882812 C 3.40625 -54.882812 3.828125 -54.976562 4.238281 -55.167969 C 4.730469 -55.398438 5.136719 -55.734375 5.453125 -56.175781 C 5.808594 -56.671875 5.984375 -57.183594 5.984375 -57.710938 L 5.984375 -20.597656 C 5.984375 -19.589844 6.058594 -18.289062 6.203125 -16.691406 C 6.339844 -15.195312 6.625 -13.652344 7.066406 -12.058594 C 7.453125 -10.648438 8.019531 -9.40625 8.761719 -8.339844 C 9.804688 -6.890625 11.34375 -5.734375 13.371094 -4.875 C 15.566406 -3.945312 17.667969 -3.480469 19.671875 -3.480469 L 35.257812 -3.480469 C 35.898438 -3.480469 37.050781 -3.550781 38.710938 -3.699219 C 40.175781 -3.828125 41.636719 -4.148438 43.085938 -4.667969 Z M 43.085938 -4.667969 "/></g></g></g></g><g fill="#ffffff" fill-opacity="1"><g transform="translate(2.22689, 75.050865)"><g><path d="M 44.25 -1.390625 C 42.519531 -0.773438 40.773438 -0.390625 39.015625 -0.234375 C 37.253906 -0.078125 36 0 35.25 0 L 19.671875 0 C 17.191406 0 14.640625 -0.554688 12.015625 -1.671875 C 9.390625 -2.785156 7.363281 -4.332031 5.9375 -6.3125 C 4.945312 -7.726562 4.203125 -9.332031 3.703125 -11.125 C 3.210938 -12.925781 2.890625 -14.675781 2.734375 -16.375 C 2.578125 -18.070312 2.5 -19.476562 2.5 -20.59375 L 2.5 -57.703125 C 2.5 -58.140625 2.65625 -58.359375 2.96875 -58.359375 L 24.5 -58.359375 C 24.800781 -58.359375 24.953125 -58.140625 24.953125 -57.703125 C 24.953125 -54.304688 24.953125 -50.90625 24.953125 -47.5 C 24.953125 -46.632812 24.953125 -45.351562 24.953125 -43.65625 C 24.953125 -41.957031 24.9375 -40.144531 24.90625 -38.21875 C 24.875 -36.300781 24.875 -34.554688 24.90625 -32.984375 C 24.9375 -31.410156 24.984375 -30.3125 25.046875 -29.6875 C 25.109375 -28.382812 25.234375 -27.097656 25.421875 -25.828125 C 25.609375 -24.566406 25.976562 -23.691406 26.53125 -23.203125 C 27.15625 -22.640625 27.773438 -22.453125 28.390625 -22.640625 C 29.003906 -22.828125 29.4375 -23.039062 29.6875 -23.28125 C 30.363281 -24.21875 30.703125 -25.332031 30.703125 -26.625 C 30.703125 -27.925781 30.734375 -29.195312 30.796875 -30.4375 C 30.796875 -31.050781 30.8125 -32.207031 30.84375 -33.90625 C 30.875 -35.613281 30.890625 -37.5 30.890625 -39.5625 C 30.890625 -41.632812 30.890625 -43.597656 30.890625 -45.453125 C 30.890625 -47.316406 30.921875 -48.742188 30.984375 -49.734375 C 30.984375 -51.085938 30.984375 -52.429688 30.984375 -53.765625 C 30.984375 -55.097656 30.953125 -56.410156 30.890625 -57.703125 C 30.890625 -58.140625 31.046875 -58.359375 31.359375 -58.359375 L 54.09375 -58.359375 C 54.40625 -58.359375 54.5625 -58.140625 54.5625 -57.703125 L 54.5625 -22.453125 C 54.5625 -19.921875 54.421875 -17.242188 54.140625 -14.421875 C 53.859375 -11.609375 52.945312 -9.210938 51.40625 -7.234375 C 50.351562 -5.929688 49.238281 -4.769531 48.0625 -3.75 C 46.882812 -2.738281 45.613281 -1.953125 44.25 -1.390625 Z M 44.25 -1.390625 "/></g></g></g></g></g><g transform="matrix(1, 0, 0, 1, 92, 134)"><g clip-path="url(#8ce2b8e980)"><g clip-path="url(#8b7bf4c7d3)"><g fill="#000000" fill-opacity="1"><g transform="translate(2.305657, 75.050865)"><g><path d="M 57.945312 -19.019531 L 57.945312 -12.898438 C 57.945312 -10.507812 57.445312 -8.40625 56.449219 -6.585938 C 55.640625 -5.109375 54.925781 -3.984375 54.304688 -3.207031 C 53.167969 -1.746094 51.871094 -0.609375 50.410156 0.207031 C 49.46875 0.734375 48.835938 1.113281 48.507812 1.347656 L 48.363281 1.449219 L 48.210938 1.535156 C 46.464844 2.535156 44.59375 3.117188 42.597656 3.28125 C 41.015625 3.414062 39.960938 3.480469 39.433594 3.480469 L 3.0625 3.480469 C 1.761719 3.480469 0.710938 3.023438 -0.0898438 2.105469 C -0.882812 1.199219 -1.199219 0.105469 -1.039062 -1.175781 C -0.925781 -2.03125 -0.808594 -3.53125 -0.691406 -5.667969 C -0.570312 -7.84375 -0.496094 -10.25 -0.464844 -12.890625 L -0.371094 -20.5 C -0.339844 -22.8125 -0.355469 -24.546875 -0.414062 -25.710938 C -0.476562 -26.910156 -0.539062 -28.671875 -0.601562 -30.988281 C -0.664062 -33.292969 -0.710938 -35.691406 -0.742188 -38.183594 L -0.835938 -44.859375 C -0.867188 -46.851562 -0.882812 -48.167969 -0.882812 -48.804688 C -0.882812 -49.695312 -0.867188 -50.835938 -0.835938 -52.222656 C -0.804688 -53.558594 -0.789062 -54.769531 -0.789062 -55.855469 L -0.789062 -57.710938 C -0.789062 -58.886719 -0.394531 -59.871094 0.394531 -60.660156 C 1.179688 -61.445312 2.164062 -61.839844 3.339844 -61.839844 L 39.710938 -61.839844 C 41.285156 -61.839844 43.011719 -61.667969 44.890625 -61.316406 C 47.066406 -60.914062 48.800781 -60.253906 50.085938 -59.335938 L 48.0625 -56.503906 L 49.992188 -59.398438 C 50.871094 -58.8125 51.824219 -58.0625 52.84375 -57.148438 C 54.144531 -55.980469 55.203125 -54.375 56.023438 -52.324219 C 56.808594 -50.363281 57.203125 -47.796875 57.203125 -44.628906 C 57.203125 -42.015625 56.816406 -39.875 56.046875 -38.207031 C 55.40625 -36.820312 54.691406 -35.550781 53.898438 -34.398438 L 53.859375 -34.339844 L 53.816406 -34.285156 C 52.820312 -32.960938 51.71875 -31.90625 50.5 -31.125 C 49.558594 -30.519531 48.644531 -29.980469 47.761719 -29.503906 L 47.648438 -29.441406 L 47.527344 -29.386719 L 47.515625 -29.390625 C 47.617188 -29.46875 47.714844 -29.574219 47.800781 -29.710938 C 48.160156 -30.242188 48.324219 -30.839844 48.296875 -31.492188 C 48.273438 -32.070312 48.105469 -32.585938 47.792969 -33.039062 C 47.65625 -33.234375 47.511719 -33.390625 47.363281 -33.507812 C 47.34375 -33.519531 47.332031 -33.53125 47.324219 -33.535156 C 47.339844 -33.523438 47.363281 -33.511719 47.390625 -33.496094 L 47.445312 -33.46875 L 47.496094 -33.4375 C 47.96875 -33.164062 48.519531 -32.941406 49.144531 -32.773438 C 50.640625 -32.375 52.191406 -31.414062 53.796875 -29.898438 L 53.9375 -29.757812 C 55.222656 -28.386719 56.210938 -26.851562 56.902344 -25.152344 C 57.597656 -23.433594 57.945312 -21.390625 57.945312 -19.019531 Z M 50.984375 -19.019531 C 50.984375 -20.488281 50.804688 -21.660156 50.449219 -22.539062 C 50.085938 -23.4375 49.558594 -24.25 48.867188 -24.988281 L 51.402344 -27.371094 L 49.007812 -24.84375 C 48.261719 -25.554688 47.710938 -25.953125 47.351562 -26.050781 C 46.121094 -26.378906 45 -26.835938 43.988281 -27.425781 L 45.742188 -30.433594 L 44.09375 -27.371094 C 43.199219 -27.851562 42.527344 -28.417969 42.070312 -29.078125 C 41.617188 -29.734375 41.375 -30.445312 41.34375 -31.214844 C 41.308594 -32.066406 41.53125 -32.851562 42.011719 -33.570312 C 42.632812 -34.5 43.527344 -35.226562 44.699219 -35.746094 L 46.113281 -32.566406 L 44.464844 -35.628906 C 45.1875 -36.019531 45.945312 -36.46875 46.738281 -36.976562 C 47.25 -37.308594 47.753906 -37.804688 48.246094 -38.457031 L 51.03125 -36.371094 L 48.164062 -38.34375 C 48.730469 -39.167969 49.253906 -40.097656 49.726562 -41.125 C 50.070312 -41.867188 50.242188 -43.035156 50.242188 -44.628906 C 50.242188 -46.902344 50.015625 -48.605469 49.5625 -49.738281 C 49.144531 -50.78125 48.691406 -51.523438 48.199219 -51.964844 C 47.425781 -52.660156 46.734375 -53.207031 46.132812 -53.609375 L 46.039062 -53.671875 C 45.59375 -53.992188 44.789062 -54.261719 43.625 -54.476562 C 42.164062 -54.746094 40.859375 -54.882812 39.710938 -54.882812 L 3.339844 -54.882812 C 4.085938 -54.882812 4.742188 -55.167969 5.3125 -55.738281 C 5.882812 -56.308594 6.171875 -56.96875 6.171875 -57.710938 L 6.171875 -55.855469 C 6.171875 -54.714844 6.15625 -53.453125 6.121094 -52.066406 C 6.09375 -50.730469 6.078125 -49.644531 6.078125 -48.804688 C 6.078125 -48.203125 6.09375 -46.921875 6.125 -44.957031 L 6.214844 -38.269531 C 6.246094 -35.8125 6.292969 -33.449219 6.355469 -31.175781 C 6.414062 -28.917969 6.476562 -27.210938 6.535156 -26.058594 C 6.601562 -24.75 6.621094 -22.867188 6.585938 -20.417969 L 6.496094 -12.808594 C 6.464844 -10.070312 6.382812 -7.558594 6.257812 -5.28125 C 6.128906 -2.964844 6 -1.308594 5.863281 -0.3125 C 5.964844 -1.09375 5.722656 -1.816406 5.148438 -2.476562 C 4.5625 -3.144531 3.867188 -3.480469 3.0625 -3.480469 L 39.433594 -3.480469 C 39.769531 -3.480469 40.632812 -3.539062 42.019531 -3.652344 C 42.992188 -3.734375 43.90625 -4.019531 44.757812 -4.503906 L 46.484375 -1.484375 L 44.460938 -4.316406 C 45 -4.699219 45.851562 -5.21875 47.015625 -5.867188 C 47.65625 -6.226562 48.273438 -6.789062 48.871094 -7.554688 C 49.238281 -8.015625 49.730469 -8.808594 50.34375 -9.929688 C 50.769531 -10.707031 50.984375 -11.695312 50.984375 -12.898438 Z M 26.324219 -12.472656 C 26.488281 -12.679688 26.5625 -12.878906 26.546875 -13.070312 C 26.445312 -14.28125 26.398438 -15.460938 26.398438 -16.609375 L 29.875 -16.609375 L 26.402344 -16.414062 C 26.34375 -17.484375 26.253906 -18.644531 26.132812 -19.898438 C 26.121094 -20.042969 26.050781 -20.152344 25.929688 -20.226562 L 25.785156 -20.3125 L 25.65625 -20.414062 C 26.011719 -20.144531 26.433594 -20.0625 26.917969 -20.171875 L 26.546875 -20.085938 L 26.164062 -20.085938 C 26.464844 -20.085938 26.769531 -20.152344 27.078125 -20.28125 C 27.5 -20.460938 27.851562 -20.730469 28.136719 -21.09375 C 28.460938 -21.507812 28.625 -21.898438 28.625 -22.269531 L 25.144531 -22.269531 L 28.613281 -22.558594 C 28.6875 -21.664062 28.6875 -20.476562 28.621094 -19 L 28.433594 -14.917969 C 28.378906 -13.648438 28.378906 -12.546875 28.433594 -11.617188 C 28.449219 -11.363281 28.460938 -11.210938 28.476562 -11.160156 C 28.4375 -11.296875 28.367188 -11.441406 28.269531 -11.601562 C 28.035156 -11.980469 27.714844 -12.296875 27.304688 -12.539062 L 27.410156 -12.476562 L 27.511719 -12.40625 C 27.394531 -12.488281 27.238281 -12.546875 27.039062 -12.582031 C 26.785156 -12.625 26.542969 -12.609375 26.316406 -12.53125 C 26.371094 -12.550781 26.40625 -12.570312 26.421875 -12.589844 L 29.042969 -10.300781 Z M 31.757812 -8.125 L 31.710938 -8.066406 L 31.660156 -8.007812 C 30.8125 -7.039062 29.765625 -6.347656 28.519531 -5.929688 C 26.761719 -5.34375 25.09375 -5.605469 23.519531 -6.707031 L 25.515625 -9.558594 L 23.726562 -6.574219 C 22.800781 -7.128906 22.164062 -7.992188 21.8125 -9.160156 C 21.640625 -9.730469 21.53125 -10.410156 21.484375 -11.207031 C 21.417969 -12.378906 21.414062 -13.722656 21.484375 -15.234375 L 21.667969 -19.320312 C 21.722656 -20.5 21.726562 -21.386719 21.675781 -21.980469 L 21.664062 -22.125 L 21.664062 -22.269531 C 21.664062 -23.503906 21.996094 -24.542969 22.664062 -25.390625 C 23.53125 -26.496094 24.699219 -27.046875 26.164062 -27.046875 L 26.164062 -23.566406 L 25.410156 -26.964844 C 27.007812 -27.320312 28.480469 -26.992188 29.828125 -25.980469 L 27.742188 -23.195312 L 29.558594 -26.164062 C 31.660156 -24.878906 32.828125 -23.011719 33.0625 -20.558594 C 33.191406 -19.210938 33.285156 -17.960938 33.351562 -16.800781 L 33.355469 -16.703125 L 33.355469 -16.609375 C 33.355469 -15.652344 33.398438 -14.667969 33.484375 -13.648438 C 33.652344 -11.617188 33.078125 -9.773438 31.757812 -8.125 Z M 26.472656 -37.570312 C 26.570312 -37.609375 26.644531 -37.644531 26.695312 -37.679688 L 26.695312 -37.675781 C 26.683594 -37.660156 26.675781 -37.648438 26.671875 -37.636719 C 26.683594 -37.667969 26.695312 -37.71875 26.703125 -37.785156 C 26.871094 -39.09375 26.953125 -40.261719 26.953125 -41.289062 L 30.433594 -41.289062 L 26.957031 -41.105469 C 26.898438 -42.246094 26.824219 -43.355469 26.734375 -44.433594 C 26.703125 -44.785156 26.507812 -45.167969 26.144531 -45.585938 L 28.761719 -47.875 L 26.199219 -45.523438 C 26.371094 -45.335938 26.632812 -45.207031 26.992188 -45.136719 C 27.382812 -45.058594 27.71875 -45.089844 28 -45.226562 L 26.441406 -48.339844 L 28.132812 -45.296875 C 28.363281 -45.425781 28.566406 -45.628906 28.742188 -45.902344 C 28.972656 -46.257812 29.085938 -46.636719 29.085938 -47.042969 L 25.609375 -47.042969 L 29.085938 -47.136719 C 29.152344 -44.816406 29.132812 -42.742188 29.035156 -40.917969 L 28.710938 -34.976562 L 25.238281 -35.164062 L 28.714844 -35.164062 C 28.714844 -35.84375 28.472656 -36.441406 27.980469 -36.957031 C 27.628906 -37.328125 27.25 -37.554688 26.835938 -37.640625 C 26.761719 -37.65625 26.65625 -37.640625 26.519531 -37.589844 Z M 28.964844 -31.070312 C 27.835938 -30.648438 26.648438 -30.570312 25.402344 -30.832031 C 24.402344 -31.042969 23.578125 -31.488281 22.933594 -32.164062 C 22.148438 -32.992188 21.757812 -33.992188 21.757812 -35.164062 L 21.757812 -35.261719 L 22.085938 -41.289062 C 22.175781 -42.925781 22.1875 -44.8125 22.128906 -46.945312 L 22.128906 -47.042969 C 22.128906 -48 22.382812 -48.875 22.890625 -49.664062 C 23.34375 -50.371094 23.964844 -50.945312 24.753906 -51.382812 L 24.886719 -51.453125 C 26.03125 -52.023438 27.1875 -52.195312 28.355469 -51.960938 C 29.484375 -51.734375 30.476562 -51.15625 31.328125 -50.226562 L 31.355469 -50.199219 L 31.382812 -50.167969 C 32.75 -48.605469 33.511719 -46.882812 33.667969 -45.011719 C 33.765625 -43.863281 33.84375 -42.683594 33.90625 -41.472656 L 33.914062 -41.378906 L 33.914062 -41.289062 C 33.914062 -39.964844 33.808594 -38.503906 33.605469 -36.90625 C 33.429688 -35.53125 32.9375 -34.339844 32.128906 -33.328125 C 31.339844 -32.339844 30.300781 -31.59375 29.011719 -31.089844 Z M 28.964844 -31.070312 "/></g></g></g></g><g fill="#ffffff" fill-opacity="1"><g transform="translate(2.305657, 75.050865)"><g><path d="M 54.46875 -19.015625 L 54.46875 -12.890625 C 54.46875 -11.097656 54.109375 -9.550781 53.390625 -8.25 C 52.679688 -6.957031 52.082031 -6 51.59375 -5.375 C 50.71875 -4.269531 49.753906 -3.421875 48.703125 -2.828125 C 47.660156 -2.242188 46.921875 -1.796875 46.484375 -1.484375 C 45.179688 -0.742188 43.785156 -0.3125 42.296875 -0.1875 C 40.816406 -0.0625 39.863281 0 39.4375 0 L 3.0625 0 C 2.5625 0 2.34375 -0.25 2.40625 -0.75 C 2.53125 -1.675781 2.65625 -3.25 2.78125 -5.46875 C 2.90625 -7.695312 2.984375 -10.15625 3.015625 -12.84375 C 3.046875 -15.539062 3.078125 -18.078125 3.109375 -20.453125 C 3.140625 -22.835938 3.125 -24.648438 3.0625 -25.890625 C 3 -27.066406 2.9375 -28.796875 2.875 -31.078125 C 2.8125 -33.367188 2.765625 -35.75 2.734375 -38.21875 C 2.703125 -40.695312 2.671875 -42.925781 2.640625 -44.90625 C 2.609375 -46.882812 2.59375 -48.179688 2.59375 -48.796875 C 2.59375 -49.671875 2.609375 -50.785156 2.640625 -52.140625 C 2.671875 -53.503906 2.6875 -54.742188 2.6875 -55.859375 C 2.6875 -56.972656 2.6875 -57.585938 2.6875 -57.703125 C 2.6875 -58.140625 2.90625 -58.359375 3.34375 -58.359375 L 39.703125 -58.359375 C 41.066406 -58.359375 42.582031 -58.203125 44.25 -57.890625 C 45.925781 -57.585938 47.195312 -57.125 48.0625 -56.5 C 48.800781 -56.007812 49.617188 -55.359375 50.515625 -54.546875 C 51.410156 -53.742188 52.164062 -52.566406 52.78125 -51.015625 C 53.40625 -49.472656 53.71875 -47.34375 53.71875 -44.625 C 53.71875 -42.519531 53.4375 -40.863281 52.875 -39.65625 C 52.320312 -38.457031 51.707031 -37.363281 51.03125 -36.375 C 50.289062 -35.382812 49.484375 -34.609375 48.609375 -34.046875 C 47.742188 -33.492188 46.910156 -33 46.109375 -32.5625 C 45.554688 -32.3125 45.15625 -32 44.90625 -31.625 C 44.65625 -31.257812 44.929688 -30.863281 45.734375 -30.4375 C 46.484375 -30 47.320312 -29.65625 48.25 -29.40625 C 49.175781 -29.164062 50.226562 -28.488281 51.40625 -27.375 C 52.394531 -26.320312 53.148438 -25.144531 53.671875 -23.84375 C 54.203125 -22.539062 54.46875 -20.929688 54.46875 -19.015625 Z M 29.046875 -10.296875 C 29.785156 -11.222656 30.109375 -12.242188 30.015625 -13.359375 C 29.921875 -14.472656 29.875 -15.554688 29.875 -16.609375 C 29.8125 -17.722656 29.71875 -18.925781 29.59375 -20.21875 C 29.46875 -21.519531 28.847656 -22.515625 27.734375 -23.203125 C 27.242188 -23.566406 26.722656 -23.6875 26.171875 -23.5625 C 25.484375 -23.5625 25.140625 -23.128906 25.140625 -22.265625 C 25.203125 -21.523438 25.203125 -20.488281 25.140625 -19.15625 C 25.078125 -17.832031 25.015625 -16.472656 24.953125 -15.078125 C 24.890625 -13.679688 24.890625 -12.457031 24.953125 -11.40625 C 25.015625 -10.351562 25.203125 -9.738281 25.515625 -9.5625 C 26.128906 -9.125 26.757812 -9.015625 27.40625 -9.234375 C 28.0625 -9.453125 28.609375 -9.804688 29.046875 -10.296875 Z M 27.734375 -34.328125 C 29.160156 -34.890625 29.96875 -35.894531 30.15625 -37.34375 C 30.34375 -38.800781 30.4375 -40.113281 30.4375 -41.28125 C 30.375 -42.457031 30.296875 -43.601562 30.203125 -44.71875 C 30.109375 -45.832031 29.628906 -46.882812 28.765625 -47.875 C 28.078125 -48.613281 27.300781 -48.769531 26.4375 -48.34375 C 25.882812 -48.03125 25.609375 -47.597656 25.609375 -47.046875 C 25.671875 -44.816406 25.65625 -42.832031 25.5625 -41.09375 C 25.46875 -39.363281 25.359375 -37.390625 25.234375 -35.171875 C 25.234375 -34.671875 25.523438 -34.359375 26.109375 -34.234375 C 26.703125 -34.109375 27.242188 -34.140625 27.734375 -34.328125 Z M 27.734375 -34.328125 "/></g></g></g></g></g><g transform="matrix(1, 0, 0, 1, 44, 134)"><g clip-path="url(#668c24d523)"><g fill="#000000" fill-opacity="1"><g transform="translate(2.384407, 75.050865)"><g><path d="M 58.300781 -41.605469 C 58.375 -40.796875 58.394531 -39.523438 58.359375 -37.789062 C 58.328125 -36.136719 58.265625 -34.484375 58.167969 -32.832031 C 58.0625 -30.980469 57.882812 -29.597656 57.636719 -28.683594 L 54.277344 -29.597656 L 57.695312 -28.941406 C 57.34375 -27.117188 56.773438 -25.207031 55.980469 -23.210938 C 55.101562 -20.992188 53.699219 -18.882812 51.773438 -16.886719 C 50.019531 -15.058594 48.421875 -13.710938 46.988281 -12.84375 C 45.761719 -12.101562 44.722656 -11.5 43.867188 -11.039062 C 42.613281 -10.335938 40.90625 -9.742188 38.742188 -9.265625 C 36.816406 -8.84375 34.949219 -8.515625 33.144531 -8.285156 C 31.296875 -8.050781 29.960938 -7.933594 29.132812 -7.933594 C 28.75 -7.933594 28.488281 -7.914062 28.347656 -7.871094 C 28.625 -7.953125 28.898438 -8.164062 29.160156 -8.511719 C 29.214844 -8.582031 29.253906 -8.644531 29.28125 -8.695312 C 29.269531 -8.675781 29.257812 -8.640625 29.242188 -8.582031 C 29.171875 -8.332031 29.113281 -7.992188 29.070312 -7.558594 L 29.0625 -7.457031 L 29.046875 -7.359375 C 28.949219 -6.730469 28.902344 -5.839844 28.902344 -4.6875 L 28.902344 -1.113281 C 28.902344 0.03125 28.601562 1.003906 27.996094 1.808594 C 27.164062 2.921875 26.027344 3.480469 24.585938 3.480469 L 3.339844 3.480469 C 1.945312 3.480469 0.820312 2.96875 -0.0273438 1.949219 C -0.722656 1.117188 -1.066406 0.0976562 -1.066406 -1.113281 L -1.019531 -3.414062 L -0.878906 -8.902344 C -0.820312 -11.058594 -0.773438 -13.179688 -0.742188 -15.269531 C -0.710938 -17.355469 -0.695312 -19.070312 -0.695312 -20.414062 C -0.632812 -25.601562 -0.648438 -30.792969 -0.742188 -35.984375 C -0.835938 -41.230469 -0.882812 -46.496094 -0.882812 -51.773438 L 2.597656 -51.773438 L -0.878906 -51.667969 C -0.941406 -53.742188 -0.972656 -55.820312 -0.972656 -57.898438 C -0.972656 -59.136719 -0.511719 -60.144531 0.417969 -60.917969 C 1.15625 -61.53125 2.035156 -61.839844 3.0625 -61.839844 L 38.875 -61.839844 C 40.28125 -61.839844 41.914062 -61.601562 43.773438 -61.128906 C 45.808594 -60.609375 48.066406 -59.402344 50.546875 -57.507812 C 52.371094 -56.078125 53.832031 -54.34375 54.929688 -52.308594 C 55.917969 -50.472656 56.679688 -48.59375 57.214844 -46.671875 C 57.71875 -44.859375 58.074219 -43.226562 58.28125 -41.78125 L 58.292969 -41.691406 Z M 51.371094 -40.972656 L 54.835938 -41.289062 L 51.390625 -40.796875 C 51.226562 -41.945312 50.933594 -43.285156 50.507812 -44.8125 C 50.113281 -46.230469 49.546875 -47.628906 48.800781 -49.011719 C 48.167969 -50.191406 47.339844 -51.179688 46.320312 -51.976562 C 44.59375 -53.296875 43.171875 -54.101562 42.054688 -54.386719 C 40.757812 -54.714844 39.699219 -54.882812 38.875 -54.882812 L 3.0625 -54.882812 C 3.714844 -54.882812 4.320312 -55.113281 4.871094 -55.570312 C 5.613281 -56.191406 5.984375 -56.964844 5.984375 -57.898438 C 5.984375 -55.890625 6.015625 -53.882812 6.074219 -51.878906 L 6.078125 -51.824219 L 6.078125 -51.773438 C 6.078125 -46.535156 6.125 -41.3125 6.214844 -36.109375 C 6.308594 -30.847656 6.324219 -25.613281 6.261719 -20.414062 C 6.261719 -19.035156 6.246094 -17.285156 6.214844 -15.164062 C 6.183594 -13.046875 6.136719 -10.898438 6.078125 -8.726562 L 5.9375 -3.269531 L 5.890625 -1.113281 C 5.890625 -1.582031 5.699219 -2.046875 5.316406 -2.507812 C 4.777344 -3.15625 4.117188 -3.480469 3.339844 -3.480469 L 24.585938 -3.480469 C 24.234375 -3.480469 23.886719 -3.402344 23.539062 -3.25 C 23.09375 -3.050781 22.722656 -2.757812 22.429688 -2.367188 C 22.105469 -1.933594 21.941406 -1.515625 21.941406 -1.113281 L 21.941406 -4.6875 C 21.941406 -6.191406 22.019531 -7.4375 22.167969 -8.414062 L 25.609375 -7.886719 L 22.144531 -8.214844 C 22.332031 -10.175781 22.828125 -11.683594 23.632812 -12.738281 C 24.730469 -14.171875 26.566406 -14.890625 29.132812 -14.890625 C 29.667969 -14.890625 30.710938 -14.992188 32.265625 -15.1875 C 33.863281 -15.390625 35.523438 -15.683594 37.246094 -16.0625 C 38.734375 -16.390625 39.839844 -16.757812 40.566406 -17.167969 C 41.320312 -17.570312 42.257812 -18.117188 43.382812 -18.796875 C 44.300781 -19.351562 45.425781 -20.324219 46.761719 -21.710938 C 48.054688 -23.054688 48.96875 -24.410156 49.511719 -25.777344 C 50.144531 -27.367188 50.59375 -28.859375 50.863281 -30.253906 L 50.886719 -30.386719 L 50.921875 -30.511719 C 51.042969 -30.960938 51.144531 -31.867188 51.222656 -33.230469 C 51.3125 -34.796875 51.371094 -36.359375 51.402344 -37.921875 C 51.429688 -39.402344 51.421875 -40.421875 51.371094 -40.972656 Z M 27.972656 -40.640625 C 27.972656 -40.96875 27.949219 -41.417969 27.894531 -41.996094 C 27.890625 -42.054688 27.882812 -42.09375 27.867188 -42.113281 C 28.0625 -41.835938 28.308594 -41.632812 28.609375 -41.507812 C 28.695312 -41.46875 28.777344 -41.445312 28.851562 -41.429688 L 28.855469 -41.425781 C 28.910156 -41.425781 29 -41.457031 29.128906 -41.511719 C 29.390625 -41.628906 29.605469 -41.800781 29.773438 -42.035156 C 29.707031 -41.941406 29.667969 -41.855469 29.65625 -41.769531 C 29.585938 -41.285156 29.550781 -40.9375 29.550781 -40.730469 L 29.550781 -40.539062 L 29.53125 -40.347656 C 29.480469 -39.890625 29.441406 -39.078125 29.410156 -37.910156 L 29.320312 -34.105469 C 29.292969 -33.011719 29.300781 -32.300781 29.339844 -31.976562 L 29.367188 -31.761719 L 29.367188 -31.546875 C 29.367188 -31.265625 29.402344 -30.84375 29.476562 -30.28125 C 29.503906 -30.074219 29.566406 -29.894531 29.664062 -29.738281 C 29.476562 -30.035156 29.230469 -30.25 28.921875 -30.390625 C 28.828125 -30.433594 28.742188 -30.460938 28.664062 -30.476562 L 28.671875 -30.480469 C 28.71875 -30.480469 28.757812 -30.480469 28.789062 -30.484375 L 28.785156 -30.484375 C 28.679688 -30.457031 28.5625 -30.410156 28.433594 -30.332031 C 28.015625 -30.082031 27.746094 -29.730469 27.628906 -29.289062 C 27.832031 -30.046875 27.953125 -30.621094 27.996094 -31.003906 L 31.453125 -30.617188 L 27.972656 -30.617188 C 27.972656 -31.261719 27.988281 -32.308594 28.019531 -33.757812 C 28.050781 -35.152344 28.066406 -36.519531 28.066406 -37.855469 C 28.066406 -39.070312 28.042969 -39.855469 28 -40.207031 L 27.972656 -40.421875 Z M 34.933594 -40.640625 L 31.453125 -40.640625 L 34.90625 -41.070312 C 34.984375 -40.433594 35.027344 -39.359375 35.027344 -37.855469 C 35.027344 -36.46875 35.011719 -35.050781 34.980469 -33.605469 C 34.949219 -32.207031 34.933594 -31.210938 34.933594 -30.617188 L 34.933594 -30.425781 L 34.910156 -30.234375 C 34.832031 -29.503906 34.644531 -28.589844 34.351562 -27.496094 C 33.984375 -26.125 33.207031 -25.078125 32.015625 -24.363281 C 31.078125 -23.800781 29.960938 -23.519531 28.671875 -23.519531 C 27.707031 -23.519531 26.832031 -23.695312 26.054688 -24.050781 C 25.09375 -24.484375 24.335938 -25.140625 23.78125 -26.023438 C 23.136719 -27.042969 22.734375 -28.160156 22.574219 -29.378906 C 22.464844 -30.242188 22.40625 -30.960938 22.40625 -31.546875 L 25.886719 -31.546875 L 22.433594 -31.113281 C 22.351562 -31.78125 22.328125 -32.835938 22.363281 -34.277344 L 22.453125 -38.078125 C 22.488281 -39.449219 22.539062 -40.460938 22.613281 -41.117188 L 26.070312 -40.730469 L 22.59375 -40.730469 C 22.59375 -41.269531 22.652344 -41.941406 22.765625 -42.753906 C 22.941406 -43.972656 23.394531 -45.089844 24.132812 -46.109375 C 25.230469 -47.628906 26.804688 -48.386719 28.855469 -48.386719 C 30.921875 -48.386719 32.488281 -47.632812 33.554688 -46.125 C 34.285156 -45.089844 34.707031 -43.925781 34.824219 -42.625 C 34.898438 -41.839844 34.933594 -41.175781 34.933594 -40.640625 Z M 34.933594 -40.640625 "/></g></g></g><g fill="#ffffff" fill-opacity="1"><g transform="translate(2.384407, 75.050865)"><g><path d="M 54.828125 -41.28125 C 54.890625 -40.601562 54.90625 -39.457031 54.875 -37.84375 C 54.84375 -36.238281 54.78125 -34.632812 54.6875 -33.03125 C 54.601562 -31.425781 54.46875 -30.28125 54.28125 -29.59375 C 53.96875 -27.988281 53.453125 -26.285156 52.734375 -24.484375 C 52.023438 -22.691406 50.867188 -20.960938 49.265625 -19.296875 C 47.722656 -17.691406 46.363281 -16.53125 45.1875 -15.8125 C 44.007812 -15.101562 43.019531 -14.535156 42.21875 -14.109375 C 41.226562 -13.546875 39.816406 -13.0625 37.984375 -12.65625 C 36.160156 -12.257812 34.398438 -11.953125 32.703125 -11.734375 C 31.003906 -11.515625 29.816406 -11.40625 29.140625 -11.40625 C 27.710938 -11.40625 26.796875 -11.140625 26.390625 -10.609375 C 25.992188 -10.085938 25.734375 -9.179688 25.609375 -7.890625 C 25.484375 -7.085938 25.421875 -6.019531 25.421875 -4.6875 C 25.421875 -3.351562 25.421875 -2.160156 25.421875 -1.109375 C 25.421875 -0.367188 25.144531 0 24.59375 0 L 3.34375 0 C 2.71875 0 2.40625 -0.367188 2.40625 -1.109375 C 2.40625 -1.109375 2.421875 -1.847656 2.453125 -3.328125 C 2.484375 -4.816406 2.53125 -6.644531 2.59375 -8.8125 C 2.65625 -10.976562 2.703125 -13.113281 2.734375 -15.21875 C 2.765625 -17.320312 2.78125 -19.050781 2.78125 -20.40625 C 2.84375 -25.601562 2.828125 -30.816406 2.734375 -36.046875 C 2.640625 -41.273438 2.59375 -46.515625 2.59375 -51.765625 C 2.53125 -53.804688 2.5 -55.847656 2.5 -57.890625 C 2.5 -58.203125 2.6875 -58.359375 3.0625 -58.359375 L 38.875 -58.359375 C 39.988281 -58.359375 41.332031 -58.15625 42.90625 -57.75 C 44.488281 -57.351562 46.332031 -56.347656 48.4375 -54.734375 C 49.851562 -53.628906 50.992188 -52.269531 51.859375 -50.65625 C 52.722656 -49.050781 53.390625 -47.410156 53.859375 -45.734375 C 54.328125 -44.066406 54.648438 -42.582031 54.828125 -41.28125 Z M 31.453125 -40.640625 C 31.453125 -41.066406 31.421875 -41.617188 31.359375 -42.296875 C 31.296875 -42.984375 31.078125 -43.585938 30.703125 -44.109375 C 30.335938 -44.640625 29.722656 -44.90625 28.859375 -44.90625 C 27.992188 -44.90625 27.359375 -44.625 26.953125 -44.0625 C 26.546875 -43.507812 26.296875 -42.90625 26.203125 -42.25 C 26.117188 -41.601562 26.078125 -41.097656 26.078125 -40.734375 C 26.015625 -40.171875 25.96875 -39.253906 25.9375 -37.984375 C 25.90625 -36.722656 25.875 -35.457031 25.84375 -34.1875 C 25.8125 -32.914062 25.828125 -32.035156 25.890625 -31.546875 C 25.890625 -31.109375 25.9375 -30.535156 26.03125 -29.828125 C 26.125 -29.117188 26.351562 -28.46875 26.71875 -27.875 C 27.09375 -27.289062 27.742188 -27 28.671875 -27 C 29.972656 -27 30.742188 -27.460938 30.984375 -28.390625 C 31.234375 -29.316406 31.390625 -30.0625 31.453125 -30.625 C 31.453125 -31.238281 31.46875 -32.253906 31.5 -33.671875 C 31.53125 -35.097656 31.546875 -36.488281 31.546875 -37.84375 C 31.546875 -39.207031 31.515625 -40.140625 31.453125 -40.640625 Z M 31.453125 -40.640625 "/></g></g></g></g></g></svg>