<svg xmlns="http://www.w3.org/2000/svg" xmlns:xlink="http://www.w3.org/1999/xlink" width="500" zoomAndPan="magnify" viewBox="0 0 375 374.999991" height="500" preserveAspectRatio="xMidYMid meet" version="1.0"><defs><g/><clipPath id="2c029cc9de"><path d="M 53 0.800781 L 212 0.800781 L 212 234.078125 L 53 234.078125 Z M 53 0.800781 " clip-rule="nonzero"/></clipPath><clipPath id="63793e21ed"><rect x="0" width="159" y="0" height="235"/></clipPath><clipPath id="cc71c6de14"><path d="M 97 64 L 171 64 L 171 217 L 97 217 Z M 97 64 " clip-rule="nonzero"/></clipPath><clipPath id="c6aaa38fd3"><path d="M 62.816406 85.996094 L 165.320312 47.867188 L 213.964844 178.644531 L 111.464844 216.773438 Z M 62.816406 85.996094 " clip-rule="nonzero"/></clipPath><clipPath id="01edf61a79"><path d="M 62.816406 85.996094 L 165.320312 47.867188 L 213.964844 178.644531 L 111.464844 216.773438 Z M 62.816406 85.996094 " clip-rule="nonzero"/></clipPath><clipPath id="7eb5df06e0"><path d="M 0.28125 0.800781 L 153 0.800781 L 153 234.078125 L 0.28125 234.078125 Z M 0.28125 0.800781 " clip-rule="nonzero"/></clipPath><clipPath id="cdb9f7ad22"><rect x="0" width="153" y="0" height="235"/></clipPath><clipPath id="377920db74"><rect x="0" width="214" y="0" height="235"/></clipPath></defs><rect x="-37.5" width="450" fill="#ffffff" y="-37.499999" height="449.999989" fill-opacity="1"/><rect x="-37.5" width="450" fill="#000000" y="-37.499999" height="449.999989" fill-opacity="1"/><g transform="matrix(1, 0, 0, 1, 77, 70)"><g clip-path="url(#377920db74)"><g clip-path="url(#2c029cc9de)"><g transform="matrix(1, 0, 0, 1, 53, 0)"><g clip-path="url(#63793e21ed)"><g fill="#000000" fill-opacity="1"><g transform="translate(6.235855, 187.075576)"><g><path d="M 140.894531 8.746094 L 64.847656 8.746094 C 61.734375 8.746094 59.222656 7.554688 57.316406 5.171875 C 55.882812 3.382812 55.167969 1.269531 55.167969 -1.167969 L 55.167969 -1.394531 L 55.179688 -1.625 C 55.339844 -4.695312 55.660156 -8.816406 56.136719 -13.984375 C 56.609375 -19.078125 57.117188 -24.210938 57.664062 -29.382812 L 59.117188 -42.859375 L 59.824219 -44.269531 C 61.058594 -46.738281 63.054688 -48.433594 65.8125 -49.355469 C 67.179688 -49.808594 68.488281 -50.035156 69.746094 -50.035156 L 71.8125 -50.035156 L 73.660156 -49.113281 C 72.808594 -49.539062 72.058594 -49.777344 71.40625 -49.832031 C 71.632812 -49.8125 72.011719 -49.804688 72.546875 -49.804688 L 80.476562 -49.804688 L 80.476562 -41.054688 L 76.753906 -48.96875 L 78.734375 -49.902344 C 77.804688 -49.464844 77.050781 -48.769531 76.46875 -47.8125 C 75.953125 -46.960938 75.695312 -46.109375 75.695312 -45.253906 L 84.441406 -45.253906 L 75.863281 -43.539062 C 75.675781 -44.476562 75.300781 -46.929688 74.734375 -50.898438 L 72.867188 -63.960938 C 72.160156 -68.921875 71.527344 -73.691406 70.976562 -78.261719 C 70.414062 -82.914062 70.050781 -86.398438 69.886719 -88.71875 L 69.871094 -88.945312 C 69.753906 -91.554688 69.433594 -93.644531 68.914062 -95.207031 L 68.910156 -95.253906 C 69.0625 -94.976562 69.28125 -94.695312 69.566406 -94.410156 C 70.691406 -93.285156 72.074219 -92.722656 73.710938 -92.722656 L 73.402344 -92.722656 L 73.089844 -92.746094 C 74.046875 -92.675781 74.992188 -92.964844 75.921875 -93.609375 C 76.65625 -94.117188 77.128906 -94.652344 77.34375 -95.21875 C 76.734375 -93.617188 76.398438 -92.539062 76.328125 -91.988281 C 75.839844 -88.394531 75.039062 -83.433594 73.933594 -77.101562 C 72.835938 -70.847656 71.585938 -63.96875 70.179688 -56.472656 C 68.792969 -49.066406 67.480469 -41.660156 66.246094 -34.25 C 65.015625 -26.863281 63.976562 -20.136719 63.132812 -14.074219 C 62.3125 -8.191406 61.832031 -3.75 61.691406 -0.75 L 52.953125 -1.167969 L 61.699219 -1.167969 C 61.699219 0.835938 61.226562 2.628906 60.277344 4.210938 C 59.417969 5.644531 58.257812 6.765625 56.804688 7.574219 C 55.398438 8.355469 53.878906 8.746094 52.253906 8.746094 L 5.132812 8.746094 C 3.488281 8.746094 1.960938 8.363281 0.550781 7.59375 C -1.164062 6.660156 -2.457031 5.316406 -3.335938 3.5625 C -4.296875 1.632812 -4.585938 -0.5 -4.195312 -2.835938 L -4.140625 -3.183594 L -4.054688 -3.519531 C -3.996094 -3.761719 -3.945312 -4.039062 -3.914062 -4.347656 C -3.792969 -5.4375 -3.605469 -6.484375 -3.355469 -7.488281 L 5.132812 -5.363281 L -3.40625 -7.261719 C -3.109375 -8.609375 -2.496094 -11.554688 -1.574219 -16.089844 L 1.574219 -31.597656 L 4.957031 -48.277344 C 6.078125 -53.804688 7.046875 -58.128906 7.867188 -61.242188 L 16.328125 -59.015625 L 7.683594 -60.347656 C 8.003906 -62.433594 8.597656 -65.921875 9.464844 -70.808594 C 10.3125 -75.582031 11.238281 -81.09375 12.238281 -87.34375 L 15.390625 -106.726562 C 16.472656 -113.289062 17.4375 -119.5 18.285156 -125.351562 C 19.144531 -131.304688 19.890625 -136.246094 20.519531 -140.175781 C 21.070312 -143.605469 21.34375 -145.480469 21.34375 -145.792969 L 21.34375 -146.871094 L 21.605469 -147.914062 C 22.074219 -149.792969 22.957031 -151.378906 24.253906 -152.679688 C 26.121094 -154.542969 28.375 -155.472656 31.023438 -155.472656 L 115.933594 -155.472656 C 117.5625 -155.472656 119.082031 -155.070312 120.492188 -154.261719 C 121.609375 -153.625 122.558594 -152.785156 123.339844 -151.742188 C 124.164062 -150.644531 124.757812 -149.367188 125.121094 -147.914062 L 125.171875 -147.710938 L 125.210938 -147.507812 C 125.539062 -145.882812 126.132812 -142.585938 127 -137.617188 L 129.808594 -121.132812 L 132.726562 -103.734375 C 133.644531 -98.308594 134.40625 -94.082031 135.007812 -91.058594 L 135.03125 -90.953125 L 135.046875 -90.847656 C 136.148438 -84.558594 137.171875 -78.269531 138.113281 -71.976562 L 140.914062 -53.316406 L 132.261719 -52.019531 L 140.75 -54.140625 C 141.125 -52.640625 141.605469 -50.007812 142.191406 -46.25 C 142.71875 -42.855469 143.398438 -38.992188 144.234375 -34.664062 C 145.101562 -30.175781 145.929688 -25.648438 146.714844 -21.082031 C 147.472656 -16.6875 148.1875 -12.914062 148.863281 -9.765625 C 149.605469 -6.300781 150.070312 -3.925781 150.253906 -2.636719 L 141.59375 -1.398438 L 149.894531 -4.164062 C 150.8125 -1.40625 150.671875 1.167969 149.476562 3.5625 C 148.503906 5.507812 147.023438 6.941406 145.039062 7.855469 C 143.75 8.449219 142.371094 8.746094 140.894531 8.746094 Z M 140.894531 -8.746094 C 139.808594 -8.746094 138.746094 -8.507812 137.710938 -8.03125 C 135.976562 -7.230469 134.683594 -5.976562 133.828125 -4.261719 C 132.863281 -2.335938 132.6875 -0.457031 133.292969 1.367188 L 133.046875 0.617188 L 132.933594 -0.164062 C 132.804688 -1.050781 132.414062 -3.03125 131.757812 -6.097656 C 131.03125 -9.480469 130.269531 -13.484375 129.472656 -18.109375 C 128.707031 -22.5625 127.898438 -26.976562 127.054688 -31.351562 C 126.179688 -35.886719 125.460938 -39.957031 124.902344 -43.558594 C 124.398438 -46.796875 124.023438 -48.910156 123.777344 -49.898438 L 123.675781 -50.304688 L 120.8125 -69.382812 C 119.890625 -75.53125 118.890625 -81.683594 117.8125 -87.832031 L 126.429688 -89.339844 L 117.851562 -87.625 C 117.214844 -90.820312 116.421875 -95.226562 115.472656 -100.839844 L 112.558594 -118.199219 L 109.765625 -134.605469 C 108.921875 -139.433594 108.351562 -142.589844 108.054688 -144.078125 L 116.632812 -145.792969 L 108.148438 -143.671875 C 108.355469 -142.839844 108.753906 -142.03125 109.34375 -141.242188 C 110.011719 -140.355469 110.832031 -139.632812 111.8125 -139.070312 C 113.089844 -138.34375 114.464844 -137.976562 115.933594 -137.976562 L 31.023438 -137.976562 C 33.207031 -137.976562 35.074219 -138.753906 36.628906 -140.304688 C 37.613281 -141.292969 38.265625 -142.414062 38.578125 -143.671875 L 30.089844 -145.792969 L 38.839844 -145.792969 C 38.839844 -144.550781 38.492188 -141.757812 37.796875 -137.414062 C 37.179688 -133.566406 36.449219 -128.710938 35.601562 -122.84375 C 34.738281 -116.878906 33.757812 -110.570312 32.660156 -103.917969 L 29.515625 -84.574219 C 28.496094 -78.226562 27.554688 -72.621094 26.691406 -67.753906 C 25.847656 -62.996094 25.277344 -59.640625 24.976562 -57.6875 L 24.90625 -57.234375 L 24.789062 -56.789062 C 24.054688 -53.996094 23.160156 -50 22.101562 -44.796875 L 18.71875 -28.117188 L 15.570312 -12.601562 C 14.628906 -7.964844 13.992188 -4.917969 13.671875 -3.46875 L 13.648438 -3.355469 L 13.617188 -3.242188 C 13.558594 -3.003906 13.511719 -2.726562 13.476562 -2.417969 C 13.355469 -1.328125 13.167969 -0.28125 12.917969 0.722656 L 4.433594 -1.398438 L 13.0625 0.0390625 C 13.296875 -1.367188 13.046875 -2.800781 12.316406 -4.261719 C 11.554688 -5.78125 10.425781 -6.949219 8.925781 -7.765625 C 7.730469 -8.421875 6.464844 -8.746094 5.132812 -8.746094 L 52.253906 -8.746094 C 50.859375 -8.746094 49.542969 -8.40625 48.308594 -7.71875 C 47.03125 -7.011719 46.019531 -6.035156 45.277344 -4.792969 C 44.5625 -3.601562 44.203125 -2.394531 44.203125 -1.167969 L 44.203125 -1.375 L 44.214844 -1.582031 C 44.382812 -5.113281 44.910156 -10.082031 45.804688 -16.484375 C 46.667969 -22.707031 47.730469 -29.585938 48.988281 -37.128906 C 50.242188 -44.652344 51.574219 -52.171875 52.984375 -59.695312 C 54.378906 -67.125 55.617188 -73.933594 56.699219 -80.121094 C 57.765625 -86.230469 58.523438 -90.910156 58.96875 -94.160156 C 59.210938 -96.09375 59.882812 -98.515625 60.984375 -101.425781 C 62.054688 -104.246094 63.714844 -106.4375 65.964844 -107.992188 C 68.410156 -109.6875 71.199219 -110.421875 74.335938 -110.199219 L 73.710938 -101.472656 L 73.710938 -110.21875 C 76.90625 -110.21875 79.648438 -109.074219 81.941406 -106.78125 C 83.496094 -105.226562 84.6875 -103.210938 85.511719 -100.738281 C 86.542969 -97.636719 87.15625 -93.96875 87.351562 -89.738281 L 78.609375 -89.339844 L 87.335938 -89.964844 C 87.484375 -87.929688 87.820312 -84.726562 88.347656 -80.359375 C 88.882812 -75.914062 89.496094 -71.269531 90.1875 -66.4375 L 92.054688 -53.371094 C 92.574219 -49.722656 92.898438 -47.589844 93.019531 -46.96875 L 93.191406 -46.121094 L 93.191406 -45.253906 C 93.191406 -42.84375 92.601562 -40.671875 91.425781 -38.730469 C 90.183594 -36.683594 88.4375 -35.132812 86.183594 -34.074219 L 82.433594 -32.308594 L 72.546875 -32.308594 C 69.613281 -32.308594 67.378906 -32.691406 65.835938 -33.464844 L 69.746094 -41.289062 L 69.746094 -32.539062 C 70.382812 -32.539062 70.914062 -32.613281 71.347656 -32.757812 C 73.171875 -33.363281 74.546875 -34.59375 75.472656 -36.441406 L 67.648438 -40.355469 L 76.34375 -39.417969 L 75.0625 -27.535156 C 74.523438 -22.445312 74.023438 -17.390625 73.558594 -12.375 C 73.105469 -7.4375 72.800781 -3.546875 72.652344 -0.707031 L 63.914062 -1.167969 L 72.664062 -1.167969 C 72.664062 -2.824219 72.101562 -4.351562 70.980469 -5.757812 C 69.382812 -7.75 67.339844 -8.746094 64.847656 -8.746094 Z M 140.894531 -8.746094 "/></g></g></g><g fill="#ffffff" fill-opacity="1"><g transform="translate(6.235855, 187.075576)"><g><path d="M 140.890625 0 L 64.84375 0 C 64.226562 0 63.921875 -0.390625 63.921875 -1.171875 C 64.066406 -4.117188 64.375 -8.117188 64.84375 -13.171875 C 65.3125 -18.234375 65.816406 -23.328125 66.359375 -28.453125 C 66.910156 -33.585938 67.335938 -37.554688 67.640625 -40.359375 C 67.796875 -40.671875 68.109375 -40.898438 68.578125 -41.046875 C 69.046875 -41.203125 69.4375 -41.28125 69.75 -41.28125 C 70.0625 -41.132812 70.992188 -41.0625 72.546875 -41.0625 C 74.097656 -41.0625 75.691406 -41.0625 77.328125 -41.0625 C 78.960938 -41.0625 80.015625 -41.0625 80.484375 -41.0625 C 80.484375 -41.0625 81.140625 -41.367188 82.453125 -41.984375 C 83.773438 -42.609375 84.4375 -43.695312 84.4375 -45.25 C 84.28125 -46.03125 83.929688 -48.320312 83.390625 -52.125 C 82.847656 -55.9375 82.226562 -60.289062 81.53125 -65.1875 C 80.832031 -70.09375 80.207031 -74.800781 79.65625 -79.3125 C 79.113281 -83.820312 78.765625 -87.164062 78.609375 -89.34375 C 78.453125 -92.757812 77.984375 -95.632812 77.203125 -97.96875 C 76.429688 -100.300781 75.269531 -101.46875 73.71875 -101.46875 C 71.539062 -101.625 70.019531 -100.570312 69.15625 -98.3125 C 68.300781 -96.0625 67.796875 -94.316406 67.640625 -93.078125 C 67.179688 -89.648438 66.40625 -84.828125 65.3125 -78.609375 C 64.226562 -72.390625 62.984375 -65.546875 61.578125 -58.078125 C 60.179688 -50.617188 58.859375 -43.15625 57.609375 -35.6875 C 56.367188 -28.226562 55.320312 -21.425781 54.46875 -15.28125 C 53.613281 -9.132812 53.109375 -4.429688 52.953125 -1.171875 C 52.953125 -0.390625 52.71875 0 52.25 0 L 5.125 0 C 4.507812 0 4.28125 -0.46875 4.4375 -1.40625 C 4.59375 -2.019531 4.707031 -2.675781 4.78125 -3.375 C 4.863281 -4.082031 4.976562 -4.742188 5.125 -5.359375 C 5.4375 -6.765625 6.054688 -9.757812 6.984375 -14.34375 C 7.921875 -18.9375 8.972656 -24.109375 10.140625 -29.859375 C 11.304688 -35.609375 12.429688 -41.164062 13.515625 -46.53125 C 14.609375 -51.894531 15.546875 -56.054688 16.328125 -59.015625 C 16.640625 -61.035156 17.222656 -64.457031 18.078125 -69.28125 C 18.929688 -74.101562 19.863281 -79.660156 20.875 -85.953125 C 21.882812 -92.253906 22.929688 -98.707031 24.015625 -105.3125 C 25.109375 -111.925781 26.082031 -118.1875 26.9375 -124.09375 C 27.789062 -130.007812 28.53125 -134.910156 29.15625 -138.796875 C 29.78125 -142.679688 30.09375 -145.015625 30.09375 -145.796875 C 30.25 -146.410156 30.5625 -146.71875 31.03125 -146.71875 L 115.9375 -146.71875 C 116.25 -146.71875 116.484375 -146.410156 116.640625 -145.796875 C 116.941406 -144.234375 117.519531 -141.003906 118.375 -136.109375 C 119.238281 -131.210938 120.175781 -125.726562 121.1875 -119.65625 C 122.195312 -113.59375 123.164062 -107.800781 124.09375 -102.28125 C 125.03125 -96.757812 125.8125 -92.445312 126.4375 -89.34375 C 127.519531 -83.125 128.523438 -76.898438 129.453125 -70.671875 C 130.390625 -64.453125 131.328125 -58.234375 132.265625 -52.015625 C 132.578125 -50.773438 133.003906 -48.40625 133.546875 -44.90625 C 134.085938 -41.40625 134.785156 -37.4375 135.640625 -33 C 136.492188 -28.570312 137.3125 -24.101562 138.09375 -19.59375 C 138.875 -15.082031 139.613281 -11.191406 140.3125 -7.921875 C 141.007812 -4.660156 141.4375 -2.488281 141.59375 -1.40625 C 141.90625 -0.46875 141.671875 0 140.890625 0 Z M 140.890625 0 "/></g></g></g></g></g></g><g clip-path="url(#cc71c6de14)"><g clip-path="url(#c6aaa38fd3)"><g clip-path="url(#01edf61a79)"><path fill="#000000" d="M 118.445312 65.304688 L 97.289062 143.875 L 122.167969 143.03125 L 111.78125 217.601562 L 163.375 119.292969 L 139.871094 119.847656 L 170.640625 64.640625 Z M 118.445312 65.304688 " fill-opacity="1" fill-rule="nonzero"/></g></g></g><g clip-path="url(#7eb5df06e0)"><g><g clip-path="url(#cdb9f7ad22)"><g fill="#000000" fill-opacity="1"><g transform="translate(3.933708, 187.075576)"><g><path d="M 146.574219 -104.597656 C 146.757812 -102.566406 146.808594 -99.367188 146.722656 -95.003906 C 146.644531 -90.851562 146.484375 -86.695312 146.246094 -82.539062 C 145.976562 -77.886719 145.527344 -74.410156 144.902344 -72.109375 L 136.460938 -74.414062 L 145.050781 -72.761719 C 144.171875 -68.179688 142.734375 -63.378906 140.746094 -58.359375 C 138.53125 -52.78125 135.007812 -47.476562 130.167969 -42.453125 C 125.75 -37.859375 121.738281 -34.472656 118.132812 -32.289062 C 115.050781 -30.425781 112.433594 -28.914062 110.285156 -27.753906 C 107.132812 -25.980469 102.839844 -24.496094 97.40625 -23.296875 C 92.5625 -22.230469 87.871094 -21.40625 83.332031 -20.832031 C 78.6875 -20.238281 75.328125 -19.945312 73.246094 -19.945312 C 72.28125 -19.945312 71.621094 -19.894531 71.265625 -19.789062 C 71.96875 -19.992188 72.648438 -20.527344 73.3125 -21.394531 C 73.453125 -21.574219 73.550781 -21.730469 73.613281 -21.863281 C 73.589844 -21.816406 73.558594 -21.71875 73.515625 -21.574219 C 73.335938 -20.949219 73.195312 -20.089844 73.089844 -19 L 73.066406 -18.746094 L 73.027344 -18.496094 C 72.785156 -16.917969 72.664062 -14.675781 72.664062 -11.78125 L 72.664062 -2.800781 C 72.664062 0.078125 71.90625 2.527344 70.390625 4.550781 C 68.289062 7.347656 65.433594 8.746094 61.816406 8.746094 L 8.398438 8.746094 C 4.886719 8.746094 2.066406 7.464844 -0.0742188 4.902344 C -1.8125 2.8125 -2.683594 0.246094 -2.683594 -2.800781 L -2.566406 -8.578125 L -2.214844 -22.382812 C -2.058594 -27.804688 -1.941406 -33.136719 -1.867188 -38.382812 C -1.789062 -43.628906 -1.75 -47.941406 -1.75 -51.320312 C -1.59375 -64.363281 -1.632812 -77.414062 -1.867188 -90.46875 C -2.097656 -103.660156 -2.214844 -116.894531 -2.214844 -130.164062 L 6.53125 -130.164062 L -2.210938 -129.898438 C -2.371094 -135.117188 -2.449219 -140.339844 -2.449219 -145.558594 C -2.449219 -148.679688 -1.285156 -151.210938 1.046875 -153.15625 C 2.902344 -154.699219 5.121094 -155.472656 7.699219 -155.472656 L 97.738281 -155.472656 C 101.269531 -155.472656 105.371094 -154.878906 110.046875 -153.6875 C 115.167969 -152.382812 120.84375 -149.34375 127.078125 -144.578125 C 131.671875 -140.984375 135.34375 -136.628906 138.097656 -131.511719 C 140.585938 -126.894531 142.5 -122.171875 143.839844 -117.34375 C 145.109375 -112.78125 146 -108.679688 146.519531 -105.042969 L 146.554688 -104.820312 Z M 129.148438 -103.011719 L 137.863281 -103.804688 L 129.203125 -102.566406 C 128.789062 -105.460938 128.046875 -108.824219 126.984375 -112.660156 C 125.992188 -116.230469 124.5625 -119.75 122.695312 -123.21875 C 121.097656 -126.183594 119.015625 -128.671875 116.453125 -130.679688 C 112.113281 -134 108.535156 -136.015625 105.726562 -136.730469 C 102.46875 -137.5625 99.808594 -137.976562 97.738281 -137.976562 L 7.699219 -137.976562 C 9.34375 -137.976562 10.859375 -138.554688 12.25 -139.714844 C 14.113281 -141.269531 15.046875 -143.214844 15.046875 -145.558594 C 15.046875 -140.515625 15.121094 -135.472656 15.277344 -130.429688 L 15.28125 -130.296875 L 15.28125 -130.164062 C 15.28125 -116.996094 15.394531 -103.867188 15.628906 -90.78125 C 15.863281 -77.550781 15.902344 -64.398438 15.746094 -51.320312 C 15.746094 -47.855469 15.707031 -43.457031 15.628906 -38.128906 C 15.550781 -32.800781 15.433594 -27.402344 15.277344 -21.9375 L 14.925781 -8.214844 L 14.8125 -2.800781 C 14.8125 -3.976562 14.332031 -5.144531 13.367188 -6.300781 C 12.007812 -7.933594 10.351562 -8.746094 8.398438 -8.746094 L 61.816406 -8.746094 C 60.929688 -8.746094 60.050781 -8.554688 59.179688 -8.167969 C 58.058594 -7.667969 57.128906 -6.929688 56.390625 -5.949219 C 55.574219 -4.859375 55.167969 -3.808594 55.167969 -2.800781 L 55.167969 -11.78125 C 55.167969 -15.570312 55.355469 -18.695312 55.734375 -21.15625 L 64.382812 -19.828125 L 55.671875 -20.65625 C 56.144531 -25.585938 57.390625 -29.375 59.414062 -32.023438 C 62.175781 -35.632812 66.789062 -37.441406 73.246094 -37.441406 C 74.585938 -37.441406 77.210938 -37.6875 81.121094 -38.1875 C 85.136719 -38.699219 89.308594 -39.429688 93.640625 -40.382812 C 97.378906 -41.207031 100.164062 -42.132812 101.988281 -43.160156 C 103.882812 -44.179688 106.242188 -45.542969 109.070312 -47.257812 C 111.371094 -48.648438 114.203125 -51.09375 117.5625 -54.585938 C 120.808594 -57.960938 123.117188 -61.367188 124.480469 -64.808594 C 126.066406 -68.808594 127.195312 -72.558594 127.871094 -76.066406 L 127.933594 -76.390625 L 128.023438 -76.714844 C 128.328125 -77.835938 128.578125 -80.113281 128.777344 -83.546875 C 129.003906 -87.480469 129.15625 -91.410156 129.230469 -95.339844 C 129.304688 -99.0625 129.277344 -101.621094 129.148438 -103.011719 Z M 70.328125 -102.171875 C 70.328125 -102.996094 70.265625 -104.132812 70.132812 -105.578125 C 70.117188 -105.730469 70.097656 -105.828125 70.066406 -105.875 C 70.554688 -105.179688 71.175781 -104.671875 71.925781 -104.355469 C 72.144531 -104.261719 72.351562 -104.195312 72.539062 -104.164062 L 72.546875 -104.152344 C 72.679688 -104.152344 72.910156 -104.226562 73.234375 -104.367188 C 73.890625 -104.65625 74.433594 -105.09375 74.855469 -105.679688 C 74.6875 -105.445312 74.589844 -105.226562 74.558594 -105.015625 C 74.382812 -103.792969 74.296875 -102.921875 74.296875 -102.40625 L 74.296875 -101.921875 L 74.242188 -101.4375 C 74.113281 -100.289062 74.015625 -98.246094 73.945312 -95.308594 L 73.710938 -85.746094 C 73.644531 -82.992188 73.660156 -81.210938 73.761719 -80.394531 L 73.828125 -79.855469 L 73.828125 -79.3125 C 73.828125 -78.601562 73.921875 -77.539062 74.105469 -76.128906 C 74.171875 -75.613281 74.332031 -75.160156 74.578125 -74.769531 C 74.109375 -75.507812 73.488281 -76.054688 72.710938 -76.40625 C 72.476562 -76.511719 72.261719 -76.582031 72.0625 -76.621094 L 72.078125 -76.628906 C 72.199219 -76.628906 72.296875 -76.632812 72.378906 -76.640625 L 72.371094 -76.636719 C 72.101562 -76.578125 71.808594 -76.449219 71.484375 -76.257812 C 70.433594 -75.625 69.757812 -74.75 69.457031 -73.632812 C 69.96875 -75.542969 70.277344 -76.980469 70.382812 -77.945312 L 79.078125 -76.976562 L 70.328125 -76.976562 C 70.328125 -78.597656 70.371094 -81.226562 70.449219 -84.867188 C 70.523438 -88.378906 70.5625 -91.816406 70.5625 -95.171875 C 70.5625 -98.230469 70.507812 -100.203125 70.398438 -101.085938 L 70.328125 -101.625 Z M 87.824219 -102.171875 L 79.078125 -102.171875 L 87.757812 -103.257812 C 87.957031 -101.652344 88.058594 -98.957031 88.058594 -95.171875 C 88.058594 -91.6875 88.019531 -88.125 87.941406 -84.484375 C 87.863281 -80.972656 87.824219 -78.46875 87.824219 -76.976562 L 87.824219 -76.492188 L 87.773438 -76.011719 C 87.570312 -74.175781 87.097656 -71.882812 86.363281 -69.125 C 85.445312 -65.675781 83.484375 -63.054688 80.488281 -61.253906 C 78.128906 -59.839844 75.328125 -59.132812 72.078125 -59.132812 C 69.65625 -59.132812 67.460938 -59.578125 65.5 -60.464844 C 63.089844 -61.554688 61.183594 -63.207031 59.785156 -65.425781 C 58.164062 -67.988281 57.15625 -70.800781 56.757812 -73.863281 C 56.476562 -76.027344 56.332031 -77.84375 56.332031 -79.3125 L 65.082031 -79.3125 L 56.402344 -78.226562 C 56.191406 -79.902344 56.132812 -82.550781 56.21875 -86.171875 L 56.453125 -95.738281 C 56.535156 -99.175781 56.671875 -101.722656 56.855469 -103.371094 L 65.546875 -102.40625 L 56.800781 -102.40625 C 56.800781 -103.753906 56.945312 -105.449219 57.238281 -107.492188 C 57.675781 -110.546875 58.820312 -113.359375 60.671875 -115.925781 C 63.429688 -119.742188 67.386719 -121.648438 72.546875 -121.648438 C 77.746094 -121.648438 81.683594 -119.753906 84.359375 -115.964844 C 86.195312 -113.363281 87.257812 -110.429688 87.558594 -107.164062 C 87.734375 -105.1875 87.824219 -103.523438 87.824219 -102.171875 Z M 87.824219 -102.171875 "/></g></g></g><g fill="#ffffff" fill-opacity="1"><g transform="translate(3.933708, 187.075576)"><g><path d="M 137.859375 -103.796875 C 138.015625 -102.085938 138.050781 -99.210938 137.96875 -95.171875 C 137.894531 -91.128906 137.738281 -87.085938 137.5 -83.046875 C 137.269531 -79.003906 136.921875 -76.125 136.453125 -74.40625 C 135.679688 -70.363281 134.398438 -66.085938 132.609375 -61.578125 C 130.816406 -57.066406 127.898438 -52.710938 123.859375 -48.515625 C 119.972656 -44.472656 116.550781 -41.554688 113.59375 -39.765625 C 110.644531 -37.984375 108.160156 -36.546875 106.140625 -35.453125 C 103.648438 -34.054688 100.109375 -32.851562 95.515625 -31.84375 C 90.929688 -30.832031 86.5 -30.050781 82.21875 -29.5 C 77.945312 -28.957031 74.957031 -28.6875 73.25 -28.6875 C 69.664062 -28.6875 67.367188 -28.023438 66.359375 -26.703125 C 65.347656 -25.378906 64.6875 -23.085938 64.375 -19.828125 C 64.070312 -17.804688 63.921875 -15.125 63.921875 -11.78125 C 63.921875 -8.4375 63.921875 -5.441406 63.921875 -2.796875 C 63.921875 -0.929688 63.21875 0 61.8125 0 L 8.390625 0 C 6.835938 0 6.0625 -0.929688 6.0625 -2.796875 C 6.0625 -2.796875 6.097656 -4.660156 6.171875 -8.390625 C 6.253906 -12.128906 6.375 -16.71875 6.53125 -22.15625 C 6.6875 -27.601562 6.800781 -32.96875 6.875 -38.25 C 6.957031 -43.539062 7 -47.894531 7 -51.3125 C 7.15625 -64.375 7.113281 -77.472656 6.875 -90.609375 C 6.644531 -103.753906 6.53125 -116.9375 6.53125 -130.15625 C 6.375 -135.289062 6.296875 -140.425781 6.296875 -145.5625 C 6.296875 -146.332031 6.765625 -146.71875 7.703125 -146.71875 L 97.734375 -146.71875 C 100.535156 -146.71875 103.914062 -146.210938 107.875 -145.203125 C 111.84375 -144.191406 116.472656 -141.664062 121.765625 -137.625 C 125.335938 -134.820312 128.210938 -131.398438 130.390625 -127.359375 C 132.566406 -123.316406 134.238281 -119.195312 135.40625 -115 C 136.570312 -110.800781 137.390625 -107.066406 137.859375 -103.796875 Z M 79.078125 -102.171875 C 79.078125 -103.253906 79 -104.648438 78.84375 -106.359375 C 78.6875 -108.078125 78.140625 -109.597656 77.203125 -110.921875 C 76.273438 -112.242188 74.722656 -112.90625 72.546875 -112.90625 C 70.367188 -112.90625 68.773438 -112.203125 67.765625 -110.796875 C 66.753906 -109.398438 66.128906 -107.882812 65.890625 -106.25 C 65.660156 -104.613281 65.546875 -103.332031 65.546875 -102.40625 C 65.390625 -101 65.269531 -98.703125 65.1875 -95.515625 C 65.113281 -92.328125 65.035156 -89.140625 64.953125 -85.953125 C 64.878906 -82.765625 64.921875 -80.550781 65.078125 -79.3125 C 65.078125 -78.21875 65.191406 -76.773438 65.421875 -74.984375 C 65.660156 -73.203125 66.242188 -71.570312 67.171875 -70.09375 C 68.109375 -68.613281 69.742188 -67.875 72.078125 -67.875 C 75.347656 -67.875 77.289062 -69.039062 77.90625 -71.375 C 78.53125 -73.707031 78.921875 -75.578125 79.078125 -76.984375 C 79.078125 -78.535156 79.113281 -81.097656 79.1875 -84.671875 C 79.269531 -88.253906 79.3125 -91.753906 79.3125 -95.171875 C 79.3125 -98.585938 79.234375 -100.921875 79.078125 -102.171875 Z M 79.078125 -102.171875 "/></g></g></g></g></g></g></g></g></svg>